<?xml version="1.0" encoding="utf-8"?>
<!-- Generator: Adobe Illustrator 19.0.0, SVG Export Plug-In . SVG Version: 6.00 Build 0)  -->
<svg version="1.1" id="Layer_1" xmlns="http://www.w3.org/2000/svg" xmlns:xlink="http://www.w3.org/1999/xlink" x="0px" y="0px"
	 viewBox="0 0 1366 768" style="enable-background:new 0 0 1366 768;" xml:space="preserve">
<style type="text/css">
	.st0{display:none;fill:url(#XMLID_4_);}
	.st1{fill:url(#XMLID_6_);}
	.st2{display:none;opacity:0.66;fill:url(#XMLID_7_);}
</style>
<linearGradient id="XMLID_4_" gradientUnits="userSpaceOnUse" x1="901.4282" y1="199.4327" x2="102.3172" y2="724.3961">
	<stop  offset="0" style="stop-color:#21A5F0"/>
	<stop  offset="1" style="stop-color:#BABABA"/>
</linearGradient>
<path id="XMLID_3_" class="st0" d="M161.2,642.4c28.1,0,58.5,3.7,84.9,13.9c20.3,7.8,34.8,16.9,57.9,13.3
	c18.3-2.8,35.4-10.4,53.1-15.9c56.5-17.6,119.5-13.6,173.3,11.2c7.4,3.4,14.8,7.3,23,8.2c13.3,1.6,26.1-4.9,38.4-10.2
	c63-27.1,137.2-26.9,200.1,0.5c9.5,4.1,19,8.9,29.3,9.5c13.7,0.8,26.5-5.8,39.1-11.2c57.4-24.6,124.5-25.7,182.7-3
	c34.5,13.4,50.8,15,84.1,1.1c29.4-12.3,62.5-17.5,94.2-17.1c51,0.6,100.5,16.5,142.7,43.8V281.9c-109,0-187.9-100.5-403.5-100.5
	S683,2,683,2H-2v696.6C43,663.4,99.7,642.4,161.2,642.4z"/>
<linearGradient id="XMLID_6_" gradientUnits="userSpaceOnUse" x1="72.6073" y1="446.0817" x2="-44.8208" y2="523.2242">
	<stop  offset="0" style="stop-color:#BABABA"/>
	<stop  offset="1" style="stop-color:#59BABA"/>
</linearGradient>
<path id="XMLID_2_" class="st1" d="M0,351c71.8,0,130,58.2,130,130S71.8,611,0,611"/>
<linearGradient id="XMLID_7_" gradientUnits="userSpaceOnUse" x1="1393.6348" y1="284.7024" x2="1262.9896" y2="370.5276">
	<stop  offset="0" style="stop-color:#BABABA"/>
	<stop  offset="1" style="stop-color:#59BABA"/>
</linearGradient>
<path id="XMLID_5_" class="st2" d="M1366,481c-29.6,0-56.9-15.8-71.8-41.4l-50.4-87.1c-14.8-25.7-14.8-57.3,0-83l50.4-87.1
	c14.8-25.6,42.2-41.4,71.8-41.4"/>
</svg>
