<?xml version="1.0" encoding="utf-8"?>
<!-- Generator: Adobe Illustrator 19.0.0, SVG Export Plug-In . SVG Version: 6.00 Build 0)  -->
<svg version="1.1" id="Layer_1" xmlns:svg="http://www.w3.org/2000/svg"
	 xmlns="http://www.w3.org/2000/svg" xmlns:xlink="http://www.w3.org/1999/xlink" x="0px" y="0px" viewBox="-362 145 640 480"
	 style="enable-background:new -362 145 640 480;" xml:space="preserve">
<style type="text/css">
	.st0{fill:#FFFFFF;}
</style>
<title>zig zag</title>
<g>
	<title>Layer 1</title>
	<path id="svg_1" class="st0" d="M173.5,352.7l0,2.9c0,4.8-2.5,9.2-6.6,11.5l-39.7,22.7c-4,2.3-9,2.3-13,0.1L74,367.4
		c-4-2.3-8.9-2.3-12.9,0l-43.5,24.4c-4.3,2.4-9.5,2.2-13.6-0.4l-35.5-22.8c-4.3-2.7-9.7-2.8-14-0.2l-39.9,24.3
		c-4.3,2.6-9.6,2.6-13.8-0.1l-38.4-23.8c-4.2-2.6-9.5-2.6-13.7-0.1l-43.6,26c-4.5,2.7-10.1,2.5-14.4-0.6l-35.6-25.2
		c-3.5-2.5-5.6-6.5-5.6-10.7v0c0-10.4,11.5-16.8,20.3-11.2l24.2,15.3c4.1,2.6,9.2,2.7,13.4,0.4L-149,339c4-2.2,8.8-2.2,12.8,0.1
		l37.6,21.1c3.9,2.2,8.6,2.3,12.5,0.2l43.3-22.2c3.9-2,8.6-1.9,12.4,0.2L6.5,359c3.8,2.1,8.3,2.2,12.2,0.3l44.9-21.9
		c3.7-1.8,7.9-1.8,11.6,0l37.5,18.3c3.7,1.8,8,1.8,11.6,0l30.1-14.8C163.2,336.6,173.4,343,173.5,352.7z"/>
</g>
<g>
	<title>Layer 1</title>
	<path id="svg_1_1_" class="st0" d="M170,399.7l0,2.9c0,4.8-2.5,9.2-6.6,11.5l-39.7,22.7c-4,2.3-9,2.3-13,0.1l-40.1-22.5
		c-4-2.3-8.9-2.3-12.9,0l-43.5,24.4c-4.3,2.4-9.5,2.2-13.6-0.4L-35,415.7c-4.3-2.7-9.7-2.8-14-0.2l-39.9,24.3
		c-4.3,2.6-9.6,2.6-13.8-0.1l-38.4-23.8c-4.2-2.6-9.5-2.6-13.7-0.1l-43.6,26c-4.5,2.7-10.1,2.5-14.4-0.6l-35.6-25.2
		c-3.5-2.5-5.6-6.5-5.6-10.7v0c0-10.4,11.5-16.8,20.3-11.2l24.2,15.3c4.1,2.6,9.2,2.7,13.4,0.4l43.6-23.9c4-2.2,8.8-2.2,12.8,0.1
		l37.6,21.1c3.9,2.2,8.6,2.3,12.5,0.2l43.3-22.2c3.9-2,8.6-1.9,12.4,0.2L3,406c3.8,2.1,8.3,2.2,12.2,0.3l44.9-21.9
		c3.7-1.8,7.9-1.8,11.6,0l37.5,18.3c3.7,1.8,8,1.8,11.6,0l30.1-14.8C159.7,383.6,170,390,170,399.7z"/>
</g>
</svg>
