<?xml version="1.0" encoding="utf-8"?>
<!-- Generator: Adobe Illustrator 19.0.0, SVG Export Plug-In . SVG Version: 6.00 Build 0)  -->
<svg version="1.1" id="Layer_1" xmlns="http://www.w3.org/2000/svg" xmlns:xlink="http://www.w3.org/1999/xlink" x="0px" y="0px"
	 viewBox="0 0 195.5 324.6" style="enable-background:new 0 0 195.5 324.6;" xml:space="preserve">
<style type="text/css">
	.st0{display:none;}
	.st1{font-family:'Impact';}
	.st2{font-size:415.4192px;}
	.st3{fill:#FFFFFF;}
	.st4{fill:none;stroke:#FFFFFF;stroke-width:2;stroke-miterlimit:10;}
	.st5{fill:#FFFFFF;stroke:#FFFFFF;stroke-width:10;stroke-miterlimit:10;}
</style>
<text id="XMLID_1_" transform="matrix(1 0 0 1 -12.2387 323.7073)" class="st0 st1 st2">N</text>
<g id="XMLID_3_">
	<polygon id="XMLID_20_" class="st3" points="195,320.6 195,324 120.6,324 76,174.4 76,324 5,324 5,53.9 	"/>
</g>
<polygon id="XMLID_16_" class="st4" points="190,221.7 190,263.8 0,60.4 0,60.1 "/>
<path id="XMLID_30_" class="st5" d="M-76.5-33.8"/>
<polyline id="XMLID_29_" class="st5" points="5,53.4 4.5,52.8 3.5,51.7 "/>
<polygon id="XMLID_13_" class="st3" points="191,0 191,214.7 1,53.1 1,0 77.2,0 120,143.2 120,0 "/>
<path id="XMLID_28_" class="st5" d="M-78.6-17.6"/>
<polyline id="XMLID_27_" class="st5" points="4.8,53.1 4.5,52.8 3.9,52.3 "/>
<polygon id="XMLID_12_" class="st4" points="190,258.8 190,322.6 0,55.9 0,55.4 "/>
<polyline id="XMLID_26_" class="st5" points="5,53.9 3.9,52.3 3.8,52.3 3.5,51.7 "/>
</svg>
