<svg height="512pt" viewBox="0 -26 512 512" width="512pt" xmlns="http://www.w3.org/2000/svg"><path d="m328.535156 426.667969-8.535156-68.265625v-10.558594h-128v10.558594l-8.535156 68.265625v8.742187h145.070312zm0 0" fill="#9cc2ed"/><path d="m320 358.402344v-10.558594h-24.75v10.558594l8.535156 68.265625v8.742187h24.75v-8.742187zm0 0" fill="#7f9ed4"/><path d="m0 324.273438c0 18.847656 15.28125 34.128906 34.132812 34.128906h443.734376c18.851562 0 34.132812-15.28125 34.132812-34.128906v-290.140626c0-18.851562-15.28125-34.132812-34.132812-34.132812h-443.734376c-18.851562 0-34.132812 15.28125-34.132812 34.132812zm0 0" fill="#c3ddf4"/><path d="m477.867188 0h-24.726563c18.851563 0 34.132813 15.28125 34.132813 34.132812v290.140626c0 18.847656-15.28125 34.128906-34.132813 34.128906h24.726563c18.851562 0 34.132812-15.28125 34.132812-34.128906v-290.140626c0-18.851562-15.28125-34.132812-34.132812-34.132812zm0 0" fill="#9cc2ed"/><path d="m369.285156 426.671875h-226.570312c-3.414063 0-6.179688 2.765625-6.179688 6.179687v21.769532c0 3.414062 2.765625 6.183594 6.179688 6.183594h226.574218c3.410157 0 6.179688-2.769532 6.179688-6.183594v-21.769532c0-3.410156-2.769531-6.179687-6.183594-6.179687zm0 0" fill="#c3ddf4"/><path d="m273.066406 350.675781c-4.265625 0-7.726562 3.460938-7.726562 7.726563v26.40625h-18.679688v-26.40625c0-4.265625-3.460937-7.726563-7.726562-7.726563s-7.726563 3.460938-7.726563 7.726563v34.132812c0 4.269532 3.460938 7.726563 7.726563 7.726563h34.132812c4.269532 0 7.726563-3.457031 7.726563-7.726563v-34.132812c0-4.265625-3.457031-7.726563-7.726563-7.726563zm0 0" fill="#7f9ed4"/><path d="m34.132812 283.957031v-243.640625c0-3.414062 2.765626-6.183594 6.179688-6.183594h431.375c3.414062 0 6.179688 2.769532 6.179688 6.183594v243.640625c0 3.414063-2.765626 6.179688-6.179688 6.179688h-431.375c-3.414062 0-6.179688-2.765625-6.179688-6.179688zm0 0" fill="#fff"/><path d="m471.6875 34.132812h-24.726562c3.414062 0 6.183593 2.769532 6.183593 6.183594v243.640625c0 3.414063-2.769531 6.179688-6.183593 6.179688h24.726562c3.414062 0 6.179688-2.765625 6.179688-6.179688v-243.640625c0-3.414062-2.765626-6.183594-6.179688-6.183594zm0 0" fill="#dae9f7"/><path d="m96.21875 256.003906h-21.773438c-3.414062 0-6.179687-2.769531-6.179687-6.183594v-175.371093c0-3.414063 2.765625-6.179688 6.179687-6.179688h21.773438c3.414062 0 6.179688 2.765625 6.179688 6.179688v175.371093c0 3.414063-2.765626 6.183594-6.179688 6.183594zm0 0" fill="#717b99"/><g fill="#c3ddf4"><path d="m341.335938 94.675781c-4.269532 0-7.726563 3.457031-7.726563 7.726563v119.464844c0 4.269531 3.457031 7.726562 7.726563 7.726562 4.265624 0 7.726562-3.457031 7.726562-7.726562v-119.464844c0-4.269532-3.460938-7.726563-7.726562-7.726563zm0 0"/><path d="m324.265625 77.253906h-119.464844c-4.269531 0-7.726562 3.457032-7.726562 7.726563 0 4.265625 3.457031 7.726562 7.726562 7.726562h119.464844c4.269531 0 7.726563-3.460937 7.726563-7.726562 0-4.269531-3.457032-7.726563-7.726563-7.726563zm0 0"/><path d="m187.378906 94.675781c-4.269531 0-7.726562 3.457031-7.726562 7.726563v119.464844c0 4.269531 3.457031 7.726562 7.726562 7.726562 4.265625 0 7.726563-3.457031 7.726563-7.726562v-119.464844c0-4.269532-3.460938-7.726563-7.726563-7.726563zm0 0"/><path d="m324.265625 231.210938h-119.464844c-4.269531 0-7.726562 3.457031-7.726562 7.726562s3.457031 7.726562 7.726562 7.726562h119.464844c4.269531 0 7.726563-3.457031 7.726563-7.726562s-3.457032-7.726562-7.726563-7.726562zm0 0"/></g><path d="m281.601562 154.410156h-9.339843v-9.339844c0-4.269531-3.460938-7.726562-7.726563-7.726562-4.269531 0-7.726562 3.457031-7.726562 7.726562v9.339844h-9.339844c-4.269531 0-7.726562 3.457032-7.726562 7.726563 0 4.265625 3.457031 7.726562 7.726562 7.726562h9.339844v9.335938c0 4.269531 3.457031 7.726562 7.726562 7.726562 4.265625 0 7.726563-3.457031 7.726563-7.726562v-9.335938h9.339843c4.265626 0 7.722657-3.460937 7.722657-7.726562 0-4.269531-3.457031-7.726563-7.722657-7.726563zm0 0" fill="#69cdff"/><path d="m451.460938 187.734375c0-4.265625-3.460938-7.722656-7.726563-7.722656h-51.199219c-4.269531 0-7.726562 3.457031-7.726562 7.722656 0 4.269531 3.457031 7.726563 7.726562 7.726563h51.199219c4.265625 0 7.726563-3.457032 7.726563-7.726563zm0 0" fill="#69cdff"/><path d="m443.734375 214.140625h-34.132813c-4.269531 0-7.726562 3.460937-7.726562 7.726563 0 4.269531 3.457031 7.726562 7.726562 7.726562h34.132813c4.265625 0 7.726563-3.457031 7.726563-7.726562 0-4.265626-3.460938-7.726563-7.726563-7.726563zm0 0" fill="#393e4d"/><path d="m0 290.136719v34.132812c0 18.851563 15.28125 34.132813 34.132812 34.132813h443.734376c18.851562 0 34.132812-15.28125 34.132812-34.132813v-34.132812zm0 0" fill="#393e4d"/><path d="m487.277344 324.273438c0 18.847656-15.285156 34.128906-34.132813 34.128906h24.722657c18.851562 0 34.132812-15.28125 34.132812-34.128906v-34.132813h-24.722656zm0 0" fill="#313542"/><path d="m369.289062 426.671875h-24.726562c3.414062 0 6.179688 2.765625 6.179688 6.179687v21.769532c0 3.414062-2.765626 6.183594-6.179688 6.183594h24.726562c3.410157 0 6.179688-2.769532 6.179688-6.183594v-21.769532c0-3.410156-2.769531-6.179687-6.179688-6.179687zm0 0" fill="#9cc2ed"/><path d="m170.667969 110.128906h34.132812c4.265625 0 7.726563-3.460937 7.726563-7.726562v-34.132813c0-4.269531-3.460938-7.726562-7.726563-7.726562h-34.132812c-4.269531 0-7.726563 3.457031-7.726563 7.726562v34.132813c0 4.265625 3.457032 7.726562 7.726563 7.726562zm7.726562-34.132812h18.679688v18.679687h-18.679688zm0 0" fill="#393e4d"/><path d="m358.398438 60.542969h-34.132813c-4.265625 0-7.726563 3.457031-7.726563 7.726562v34.132813c0 4.269531 3.460938 7.726562 7.726563 7.726562h34.132813c4.269531 0 7.726562-3.457031 7.726562-7.726562v-34.132813c0-4.269531-3.457031-7.726562-7.726562-7.726562zm-7.726563 34.132812h-18.679687v-18.679687h18.679687zm0 0" fill="#393e4d"/><path d="m358.398438 214.144531h-34.132813c-4.265625 0-7.726563 3.457031-7.726563 7.726563v34.132812c0 4.269532 3.460938 7.726563 7.726563 7.726563h34.132813c4.269531 0 7.726562-3.457031 7.726562-7.726563v-34.132812c0-4.269532-3.457031-7.726563-7.726562-7.726563zm-7.726563 34.132813h-18.679687v-18.679688h18.679687zm0 0" fill="#393e4d"/><path d="m204.800781 214.144531h-34.132812c-4.265625 0-7.726563 3.457031-7.726563 7.726563v34.132812c0 4.269532 3.460938 7.726563 7.726563 7.726563h34.132812c4.265625 0 7.726563-3.457031 7.726563-7.726563v-34.132812c0-4.269532-3.460938-7.726563-7.726563-7.726563zm-7.726562 34.132813h-18.679688v-18.679688h18.679688zm0 0" fill="#393e4d"/><path d="m273.066406 316.542969h-34.132812c-4.265625 0-7.726563 3.460937-7.726563 7.726562 0 4.269531 3.460938 7.726563 7.726563 7.726563h34.132812c4.269532 0 7.726563-3.457032 7.726563-7.726563 0-4.265625-3.457031-7.726562-7.726563-7.726562zm0 0" fill="#69cdff"/></svg>