<?xml version="1.0" encoding="utf-8"?>
<!-- Generator: Adobe Illustrator 19.0.0, SVG Export Plug-In . SVG Version: 6.00 Build 0)  -->
<svg version="1.1" xmlns="http://www.w3.org/2000/svg" xmlns:xlink="http://www.w3.org/1999/xlink" x="0px" y="0px"
	 viewBox="0 0 289.9 439.5" style="enable-background:new 0 0 289.9 439.5;" xml:space="preserve">
<style type="text/css">
	.st0{display:none;}
	.st1{display:inline;fill:url(#XMLID_92_);}
	.st2{display:inline;opacity:0.2;fill:#D8D8D8;}
	.st3{display:inline;opacity:0.8;fill:#D8A95D;}
	.st4{display:inline;fill:#FFF5B0;}
	.st5{display:inline;opacity:0.51;fill:#D8A95D;}
	.st6{display:inline;fill:none;stroke:#CECDCC;stroke-miterlimit:10;}
	.st7{opacity:0.68;}
	.st8{opacity:0.46;fill:#DBDBDB;}
	.st9{opacity:0.46;fill:#B3B3B3;}
	.st10{opacity:0.94;fill:#FFF6CF;}
	.st11{fill:#FFF6CF;}
	.st12{fill:#FFEEA9;}
	.st13{fill:#EF2525;}
	.st14{fill:#E5E5E5;}
	.st15{fill:url(#XMLID_93_);}
	.st16{fill:#B2B2B2;}
	.st17{opacity:0.66;fill:#EF2525;}
	.st18{fill:#D1CFD0;}
</style>
<g id="Layer_1" class="st0">
	<linearGradient id="XMLID_92_" gradientUnits="userSpaceOnUse" x1="-201.9881" y1="-143.5435" x2="-204.63" y2="283.1249">
		<stop  offset="0" style="stop-color:#0053AA"/>
		<stop  offset="0.2853" style="stop-color:#50448D"/>
		<stop  offset="0.6363" style="stop-color:#AE326B"/>
		<stop  offset="0.8826" style="stop-color:#E82655"/>
		<stop  offset="1" style="stop-color:#FF224D"/>
	</linearGradient>
	<path id="XMLID_1_" class="st1" d="M-697.1-157.6h987v539.3c-53,12-129.9,21.6-216.5,1.6c-45.9-10.6-55.5-20.6-106-38.8
		C-217.3,278-296,354-359,276.8c-46.6-57-28.2-116.9-105.2-190.9C-503,48.7-549.3,23.8-568.1-37.4c-7.2-23.5-5.4-36.1-16.9-55.8
		C-608.7-134.1-657.5-150.3-697.1-157.6z"/>
</g>
<g id="Layer_2" class="st0">
	<path id="XMLID_4_" class="st2" d="M-95.4-155.4c0,111.6-90.5,184.4-202,184.4s-202-75.4-202-186.9"/>
	<path id="XMLID_5_" class="st3" d="M-141-157.3c0,86.6-70.2,153.1-156.8,153.1s-156.8-63.9-156.8-150.5"/>
	<path id="XMLID_3_" class="st4" d="M-153.6-155.7c0,83.1-67.4,136.1-150.5,136.1s-150.5-54.7-150.5-137.9"/>
	<circle id="XMLID_2_" class="st5" cx="-316" cy="-129.2" r="22.9"/>
	<circle id="XMLID_8_" class="st5" cx="-244.3" cy="-49.9" r="14.5"/>
	<circle id="XMLID_7_" class="st5" cx="-381.4" cy="-90.2" r="13.6"/>
</g>
<g id="Layer_3" class="st0">
	<path id="XMLID_6_" class="st6" d="M290.7-2.4C246.3,48.5,168,53.7,117.2,9.2c-49.7-43.5-55.8-116.1-14.5-166.8"/>
	<path id="XMLID_10_" class="st6" d="M290.9,53.2c-59.8,46.1-146.8,45.2-205.9-6.4C24.4-6.1,12.9-92,54.4-157.6"/>
</g>
<g id="Rocket">
	<g id="Layer_5" class="st7">
		<circle id="XMLID_21_" class="st8" cx="139.5" cy="243.5" r="39.9"/>
		<circle id="XMLID_18_" class="st9" cx="139.5" cy="243.5" r="35.7"/>
		<circle id="XMLID_23_" class="st9" cx="139.5" cy="243.5" r="32.1"/>
	</g>
	<g id="Layer_6">
		<path id="XMLID_53_" class="st10" d="M119.1,194.9l44.8-0.3c0,0-0.9,19.6,0.4,25.8c2.4,11.7,18.2,103,18.2,103H98
			c0,0,18.7-92,20.8-103.8C119.9,213.6,119.1,194.9,119.1,194.9L119.1,194.9z"/>
		<circle id="XMLID_52_" class="st11" cx="83.3" cy="308.2" r="9"/>
		<circle id="XMLID_51_" class="st11" cx="57.6" cy="305.5" r="6.2"/>
		<circle id="XMLID_50_" class="st11" cx="227.1" cy="270.1" r="6.2"/>
		<circle id="XMLID_49_" class="st11" cx="279.1" cy="299.1" r="6.2"/>
		<circle id="XMLID_48_" class="st11" cx="275.4" cy="317.3" r="4"/>
		<circle id="XMLID_47_" class="st11" cx="36.1" cy="314.1" r="4"/>
		<circle id="XMLID_46_" class="st11" cx="256" cy="283.5" r="1.2"/>
		<circle id="XMLID_45_" class="st11" cx="198.1" cy="292.6" r="4.1"/>
		<circle id="XMLID_44_" class="st11" cx="66.7" cy="283.5" r="2.9"/>
		<circle id="XMLID_43_" class="st11" cx="233.2" cy="314.4" r="30.6"/>
		<circle id="XMLID_42_" class="st11" cx="197.8" cy="332.1" r="26.7"/>
		<circle id="XMLID_41_" class="st11" cx="141.2" cy="322.9" r="30.1"/>
		<circle id="XMLID_40_" class="st11" cx="74.3" cy="319.2" r="28.7"/>
		<circle id="XMLID_39_" class="st11" cx="102.9" cy="336.1" r="17.2"/>
		<circle id="XMLID_38_" class="st11" cx="170.5" cy="336.1" r="17.2"/>
		<circle id="XMLID_37_" class="st12" cx="127" cy="336.3" r="22.4"/>
		<circle id="XMLID_32_" class="st12" cx="259" cy="364.3" r="22.4"/>
		<circle id="XMLID_24_" class="st12" cx="36" cy="370.3" r="29.9"/>
		<circle id="XMLID_25_" class="st12" cx="83" cy="388.3" r="24.1"/>
		<circle id="XMLID_28_" class="st12" cx="103" cy="370.3" r="17.5"/>
		<circle id="XMLID_26_" class="st12" cx="77" cy="368.3" r="17.5"/>
		<circle id="XMLID_27_" class="st12" cx="138" cy="395.3" r="37.5"/>
		<circle id="XMLID_29_" class="st12" cx="182" cy="388.3" r="37.5"/>
		<circle id="XMLID_30_" class="st12" cx="227" cy="378.3" r="37.5"/>
		<circle id="XMLID_31_" class="st12" cx="259" cy="386.3" r="30.1"/>
		<circle id="XMLID_36_" class="st12" cx="155.5" cy="340.1" r="15.9"/>
		<circle id="XMLID_35_" class="st12" cx="236.4" cy="336.3" r="22.8"/>
		<path id="XMLID_34_" class="st12" d="M256.3,322.1c-10.4,0-19.2,7-22,16.6c-0.3-0.2-0.6-0.4-0.9-0.6c-1-11.6-10.8-20.8-22.7-20.8
			c-7.8,0-14.7,3.9-18.8,9.9c-4.2-3.8-9.9-6.2-16-6.2c-9.9,0-18.4,6-22,14.6c-3.2-2.1-7.1-3.3-11.2-3.3c-4.1,0-8,1.2-11.2,3.3
			c-2.7-9.4-11.3-16.2-21.5-16.2c-5.1,0-9.7,1.7-13.5,4.5c-4.7-10.1-14.9-17-26.7-17c-12.8,0-23.7,8.1-27.8,19.5
			c-0.9-0.1-1.8-0.2-2.8-0.2c-11.8,0-21.5,9.6-21.5,21.5c0,5.6,0.5,14,5.6,14.5c6.6,0.6,19.6-1,16.9,0c0,0,11.1,0.9,14.8-0.1
			c2.1,1.2,14.6,0.5,14.6,0.5c-3.1-1,7.2-0.5,16.3,0.1c13.6-1.4,21.5-1.2,21.5-1.2s11.1,1.6,17,0.4c7-0.6,18.1-0.4,18.1-0.4
			s10.9,1.2,18.1,0.3c2,1.7,14.8,0.3,14.8,0.3s14.2,1.7,16.4-0.3c17.8,1.5,32.7-1.7,25.4-0.3c0,0,16.1,0,26,0.3
			c2.2,1.3,16.2,0.6,16.2,0.6s8.2,0.5,9.7-0.3c6.1-3.3,10.2-9.2,10.2-17.2C279.1,332.3,268.9,322.1,256.3,322.1z"/>
	</g>
	<g id="Layer_4">
		<polygon id="XMLID_13_" class="st13" points="103.1,147.7 60.3,139.5 110,167.6 		"/>
		<polygon id="XMLID_14_" class="st13" points="178.8,147.7 223.2,139.5 173.5,167.6 		"/>
		<path id="XMLID_11_" class="st14" d="M140.2,11.3c9.9,10.7,30.4,35.4,38.6,73.8c9.9,46.5-4.5,84.3-10.2,96.3h-51.7
			c-5.8-10-25.1-46.2-16.9-93.9C107.2,45.8,131.3,20.1,140.2,11.3z"/>
		<path id="XMLID_15_" class="st13" d="M160,37.5c-7-11.3-15.1-21.1-19.8-26.1c-4.4,4.4-12.7,13-20.8,25.8L160,37.5z"/>
		<linearGradient id="XMLID_93_" gradientUnits="userSpaceOnUse" x1="114.689" y1="188.2961" x2="170.3823" y2="188.2961">
			<stop  offset="0" style="stop-color:#E5E5E5"/>
			<stop  offset="0.5" style="stop-color:#000000;stop-opacity:0.49"/>
			<stop  offset="1" style="stop-color:#E5E5E5"/>
		</linearGradient>
		<path id="XMLID_12_" class="st15" d="M114.7,188.3L114.7,188.3c0,3.5,2.9,6.4,6.4,6.4h42.8c3.5,0,6.4-2.9,6.4-6.4v0l-1.8-6.4
			h-51.7L114.7,188.3z"/>
		<circle id="XMLID_17_" class="st16" cx="141.2" cy="90.2" r="18.7"/>
		<circle id="XMLID_9_" class="st17" cx="141.2" cy="90.2" r="14.1"/>
		<circle id="XMLID_20_" class="st16" cx="141.2" cy="127.2" r="10.3"/>
		<circle id="XMLID_19_" class="st17" cx="141.2" cy="127.2" r="6.3"/>
		<path id="XMLID_16_" class="st18" d="M103,147.7c1.9,5.9,3.7,11.6,5.6,17.4c2.8,5.5,5.5,11.2,8.3,16.2h51.4c2.4-6,4.3-11,5.5-14.6
			c0,0,10.9-30.8,8.3-54.8c-0.1-1.1-0.4-2.9-1.4-3.2c-2.9-1-9,11.5-14.6,20.5c-5.3,8.6-24.7,40.4-42.4,38.6
			C120.6,167.6,111.9,165.7,103,147.7z"/>
	</g>
</g>
</svg>
