<?xml version="1.0" encoding="utf-8"?>
<!-- Generator: Adobe Illustrator 19.0.0, SVG Export Plug-In . SVG Version: 6.00 Build 0)  -->
<svg version="1.1" xmlns="http://www.w3.org/2000/svg" xmlns:xlink="http://www.w3.org/1999/xlink" x="0px" y="0px"
	 viewBox="0 0 1366 768" style="enable-background:new 0 0 1366 768;" xml:space="preserve">
<style type="text/css">
	.st0{display:none;}
	.st1{display:inline;fill:url(#XMLID_11_);}
	.st2{opacity:0.2;fill:#D8D8D8;}
	.st3{opacity:0.8;fill:#D8A95D;}
	.st4{fill:#FFF5B0;}
	.st5{opacity:0.51;fill:#D8A95D;}
	.st6{display:inline;fill:none;stroke:#CECDCC;stroke-miterlimit:10;}
</style>
<g id="Layer_1" class="st0">
	<linearGradient id="XMLID_11_" gradientUnits="userSpaceOnUse" x1="874.0827" y1="14.0583" x2="871.4408" y2="440.7267">
		<stop  offset="0" style="stop-color:#0053AA"/>
		<stop  offset="0.2853" style="stop-color:#50448D"/>
		<stop  offset="0.6363" style="stop-color:#AE326B"/>
		<stop  offset="0.8826" style="stop-color:#E82655"/>
		<stop  offset="1" style="stop-color:#FF224D"/>
	</linearGradient>
	<path id="XMLID_1_" class="st1" d="M379,0h987v539.3c-53,12-129.9,21.6-216.5,1.6c-45.9-10.6-55.5-20.6-106-38.8
		c-184.8-66.6-263.4,9.4-326.4-67.7c-46.6-57-28.2-116.9-105.2-190.9c-38.8-37.3-85.1-62.2-103.9-123.4
		c-7.2-23.5-5.4-36.1-16.9-55.8C467.4,23.5,418.6,7.3,379,0z"/>
</g>
<g id="Layer_2">
	<path id="XMLID_4_" class="st2" d="M980.7,2.2c0,111.6-90.5,184.4-202,184.4s-202-75.4-202-186.9"/>
	<path id="XMLID_5_" class="st3" d="M935.1,0.3c0,86.6-70.2,153.1-156.8,153.1S621.4,89.5,621.4,2.8"/>
	<path id="XMLID_3_" class="st4" d="M922.5,1.9c0,83.1-67.4,136.1-150.5,136.1S621.4,83.3,621.4,0.1"/>
	<circle id="XMLID_2_" class="st5" cx="760.1" cy="28.4" r="22.9"/>
	<circle id="XMLID_8_" class="st5" cx="831.8" cy="107.7" r="14.5"/>
	<circle id="XMLID_7_" class="st5" cx="694.6" cy="67.4" r="13.6"/>
</g>
<g id="Layer_3" class="st0">
	<path id="XMLID_9_" class="st6" d="M1365.8,155.2c-44.4,50.9-121.7,56.1-172.6,11.6s-56.1-119.4-11.6-170.2"/>
	<path id="XMLID_10_" class="st6" d="M1366,210.8c-59.8,46.1-145.8,45.2-204.9-6.4c-60.7-53-72.2-138.8-30.6-204.5"/>
</g>
</svg>
