<?xml version="1.0" encoding="utf-8"?>
<!-- Generator: Adobe Illustrator 19.0.0, SVG Export Plug-In . SVG Version: 6.00 Build 0)  -->
<svg version="1.1" xmlns="http://www.w3.org/2000/svg" xmlns:xlink="http://www.w3.org/1999/xlink" x="0px" y="0px"
	 viewBox="0 0 255.8 227.8" style="enable-background:new 0 0 255.8 227.8;" xml:space="preserve">
<style type="text/css">
	.st0{opacity:0.47;fill:#2E3192;}
	.st1{fill:#1B1464;}
	.st2{fill:none;stroke:#1B1464;stroke-width:10;stroke-miterlimit:10;}
	.st3{fill:#545C6D;}
	.st4{fill:#B3B3B3;}
	.st5{fill:#2E3192;}
	.st6{fill:#B9BF04;}
	.st7{fill:#9E005D;}
</style>
<g id="Gear">
	<path id="XMLID_25_" class="st0" d="M199.5,66.8c-0.4-4.2,2.3-8,6.3-9.1c-1.1-5.1-2.8-10-4.9-14.6c-3.9,1.5-8.5,0-10.6-3.7
		c-2.1-3.7-1.2-8.2,1.8-10.9c-4.3-5.5-9.3-10.4-14.9-14.5c-2.9,3.2-7.8,3.9-11.4,1.3c-3.2-2.2-4.4-6.2-3.3-9.7
		c-6.9-3-14.4-4.9-22.2-5.7c-0.6,4.2-4.2,7.3-8.5,7.3c-4.2,0-7.7-3-8.5-7C118,1,113,2.2,108.2,3.9c1.2,4-0.7,8.4-4.6,10.3
		c-3.8,1.8-8.3,0.5-10.7-2.8c-4.3,2.8-8.4,6-12,9.6c2.8,3.2,2.9,7.9,0.1,11.3c-2.7,3.2-7.3,4-10.8,2c-2.7,4.3-5,8.9-6.9,13.8
		c3.9,1.7,6,6,4.9,10.2c-1.1,4.1-4.9,6.7-9,6.4c-0.4,3.1-0.6,6.3-0.6,9.5c0,2,0.1,3.9,0.2,5.9c4.2-0.1,8,2.9,8.7,7.1
		c0.7,4.2-1.6,8.1-5.5,9.6c1.6,4.9,3.6,9.7,6.2,14.1c3.8-1.9,8.4-0.8,10.9,2.8c2.4,3.5,2,8.1-0.9,11c3.5,3.8,7.3,7.2,11.5,10.2
		c2.6-3.3,7.3-4.3,11.1-2.1c3.7,2.1,5.2,6.5,3.8,10.3c4.7,1.9,9.6,3.4,14.8,4.3c1-4.1,4.8-7,9.1-6.6c4.2,0.4,7.4,3.7,7.8,7.7
		c5.2-0.2,10.3-1,15.2-2.3c-0.8-4.1,1.4-8.4,5.5-9.8c4-1.4,8.3,0.2,10.4,3.7c4.6-2.4,8.9-5.3,12.8-8.5c-2.5-3.4-2.2-8.2,0.8-11.2
		c3-3,7.6-3.3,11-1c3.1-4.1,5.8-8.5,8-13.1c-3.7-2-5.5-6.5-4-10.5c1.4-4,5.5-6.2,9.5-5.6c1.1-4.9,1.7-10,1.7-15.3
		C203.3,74.4,199.9,71.1,199.5,66.8z M133.1,110.8c-20.9,0-37.8-16.9-37.8-37.8c0-20.9,16.9-37.8,37.8-37.8S171,52.1,171,73
		C171,93.9,154,110.8,133.1,110.8z"/>
</g>
<g id="Web">
	<path id="XMLID_16_" class="st1" d="M136.3,189.8h-8.4V22c0-2.3,1.9-4.2,4.2-4.2l0,0c2.3,0,4.2,1.9,4.2,4.2V189.8z"/>
	<circle id="XMLID_17_" class="st2" cx="132.3" cy="202.8" r="15"/>
	<path id="XMLID_18_" class="st1" d="M252.3,207.6h-105v-7h105c1.9,0,3.5,1.6,3.5,3.5l0,0C255.8,206,254.3,207.6,252.3,207.6z"/>
	<path id="XMLID_20_" class="st1" d="M115,206.6H9.8c-1.8,0-3.3-1.5-3.3-3.3l0,0c0-1.8,1.5-3.3,3.3-3.3H115V206.6z"/>
</g>
<g id="S1">
	<path id="XMLID_1_" class="st3" d="M243.8,93.2H12c-6.6,0-12-5.4-12-12V68.8c0-6.6,5.4-12,12-12h231.8c6.6,0,12,5.4,12,12v12.4
		C255.8,87.8,250.4,93.2,243.8,93.2z"/>
	<rect id="XMLID_2_" x="159.7" y="65.9" class="st4" width="79.2" height="18.2"/>
	<circle id="XMLID_3_" class="st5" cx="25.4" cy="75" r="10.4"/>
	<circle id="XMLID_5_" class="st6" cx="49.4" cy="75" r="10.4"/>
	<circle id="XMLID_6_" class="st7" cx="73.4" cy="75" r="10.4"/>
</g>
<g id="S2">
	<path id="XMLID_10_" class="st3" d="M243.8,134.2H12c-6.6,0-12-5.4-12-12v-12.4c0-6.6,5.4-12,12-12h231.8c6.6,0,12,5.4,12,12v12.4
		C255.8,128.8,250.4,134.2,243.8,134.2z"/>
	<rect id="XMLID_9_" x="159.7" y="106.9" class="st4" width="79.2" height="18.2"/>
	<circle id="XMLID_8_" class="st6" cx="25.4" cy="116" r="10.4"/>
	<circle id="XMLID_7_" class="st5" cx="49.4" cy="116" r="10.4"/>
	<circle id="XMLID_4_" class="st7" cx="73.4" cy="116" r="10.4"/>
</g>
<g id="S3">
	<path id="XMLID_15_" class="st3" d="M243.8,175.2H12c-6.6,0-12-5.4-12-12v-12.4c0-6.6,5.4-12,12-12h231.8c6.6,0,12,5.4,12,12v12.4
		C255.8,169.8,250.4,175.2,243.8,175.2z"/>
	<rect id="XMLID_14_" x="159.7" y="147.9" class="st4" width="79.2" height="18.2"/>
	<circle id="XMLID_13_" class="st7" cx="25.4" cy="157" r="10.4"/>
	<circle id="XMLID_12_" class="st6" cx="49.4" cy="157" r="10.4"/>
	<circle id="XMLID_11_" class="st5" cx="73.4" cy="157" r="10.4"/>
</g>
</svg>
