<?xml version="1.0" encoding="utf-8"?>
<!-- Generator: Adobe Illustrator 19.0.0, SVG Export Plug-In . SVG Version: 6.00 Build 0)  -->
<svg version="1.1" xmlns="http://www.w3.org/2000/svg" xmlns:xlink="http://www.w3.org/1999/xlink" x="0px" y="0px"
	 viewBox="0 0 318.2 279" style="enable-background:new 0 0 318.2 279;" xml:space="preserve">
<style type="text/css">
	.st0{display:none;}
	.st1{display:inline;}
	.st2{display:inline;opacity:0.47;fill:#4D4D4D;}
	.st3{enable-background:new    ;}
	.st4{clip-path:url(#XMLID_97_);enable-background:new    ;}
	.st5{fill:#646702;}
	.st6{fill:#686B02;}
	.st7{fill:#6B6F02;}
	.st8{fill:#6F7302;}
	.st9{fill:#737602;}
	.st10{clip-path:url(#XMLID_98_);enable-background:new    ;}
	.st11{fill:#9BA003;}
	.st12{fill:#9FA403;}
	.st13{fill:#A3A804;}
	.st14{fill:#A7AC04;}
	.st15{fill:#AAB004;}
	.st16{fill:#AEB404;}
	.st17{fill:#B2B704;}
	.st18{fill:#989D03;}
	.st19{fill:#949903;}
	.st20{fill:#909503;}
	.st21{fill:#8D9103;}
	.st22{fill:#898D03;}
	.st23{fill:#858A03;}
	.st24{fill:#828603;}
	.st25{fill:#7E8203;}
	.st26{fill:#7A7E03;}
	.st27{fill:#767A03;}
	.st28{fill:#A4A904;}
	.st29{clip-path:url(#XMLID_99_);enable-background:new    ;}
	.st30{fill:#606302;}
	.st31{clip-path:url(#XMLID_100_);enable-background:new    ;}
	.st32{fill:#787C03;}
	.st33{clip-path:url(#XMLID_101_);enable-background:new    ;}
	.st34{clip-path:url(#XMLID_102_);enable-background:new    ;}
	.st35{clip-path:url(#XMLID_103_);enable-background:new    ;}
	.st36{fill:#747803;}
	.st37{clip-path:url(#XMLID_104_);enable-background:new    ;}
	.st38{fill:#A0A0A0;}
	.st39{clip-path:url(#XMLID_106_);enable-background:new    ;}
	.st40{fill:#7A7A7A;}
	.st41{fill:#7F7F7F;}
	.st42{fill:#838383;}
	.st43{fill:#888888;}
	.st44{fill:#8C8C8C;}
	.st45{fill:#939393;}
	.st46{fill:#C8C8C8;}
	.st47{clip-path:url(#XMLID_107_);enable-background:new    ;}
	.st48{fill:#919191;}
	.st49{fill:#959595;}
	.st50{fill:#9A9A9A;}
	.st51{fill:#9E9E9E;}
	.st52{fill:#A3A3A3;}
	.st53{fill:#A7A7A7;}
	.st54{fill:#ACACAC;}
	.st55{fill:#B0B0B0;}
	.st56{fill:#B5B5B5;}
	.st57{fill:#B9B9B9;}
	.st58{fill:#BEBEBE;}
	.st59{fill:#C2C2C2;}
	.st60{fill:#C7C7C7;}
	.st61{fill:#CBCBCB;}
	.st62{fill:#D0D0D0;}
	.st63{fill:#D4D4D4;}
	.st64{fill:#D9D9D9;}
	.st65{clip-path:url(#XMLID_108_);enable-background:new    ;}
	.st66{clip-path:url(#XMLID_110_);enable-background:new    ;}
	.st67{fill:#767676;}
	.st68{fill:#8E8E8E;}
	.st69{clip-path:url(#XMLID_111_);enable-background:new    ;}
	.st70{display:inline;fill:#333333;}
	.st71{display:inline;fill:#B3B3B3;}
	.st72{display:inline;fill:#2E3192;}
	.st73{display:inline;fill:#B9BF04;}
	.st74{display:inline;fill:#9E005D;}
</style>
<g id="Layer_5" class="st0">
	<rect id="XMLID_3_" x="-183.4" y="-321.8" class="st1" width="818.3" height="735.5"/>
</g>
<g id="Gear" class="st0">
	<path id="XMLID_25_" class="st2" d="M572.5-255.1c-0.4-4.2,2.3-8,6.3-9.1c-1.1-5.1-2.8-10-4.9-14.6c-3.9,1.5-8.5,0-10.6-3.7
		c-2.1-3.7-1.2-8.2,1.8-10.9c-4.3-5.5-9.3-10.4-14.9-14.5c-2.9,3.2-7.8,3.9-11.4,1.3c-3.2-2.2-4.4-6.2-3.3-9.7
		c-6.9-3-14.4-4.9-22.2-5.7c-0.6,4.2-4.2,7.3-8.5,7.3c-4.2,0-7.7-3-8.5-7c-5.2,0.7-10.2,1.9-15,3.6c1.2,4-0.7,8.4-4.6,10.3
		c-3.8,1.8-8.3,0.5-10.7-2.8c-4.3,2.8-8.4,6-12,9.6c2.8,3.2,2.9,7.9,0.1,11.3c-2.7,3.2-7.3,4-10.8,2c-2.7,4.3-5,8.9-6.9,13.8
		c3.9,1.7,6,6,4.9,10.2c-1.1,4.1-4.9,6.7-9,6.4c-0.4,3.1-0.6,6.3-0.6,9.5c0,2,0.1,3.9,0.2,5.9c4.2-0.1,8,2.9,8.7,7.1
		c0.7,4.2-1.6,8.1-5.5,9.6c1.6,4.9,3.6,9.7,6.2,14.1c3.8-1.9,8.4-0.8,10.9,2.8c2.4,3.5,2,8.1-0.9,11c3.5,3.8,7.3,7.2,11.5,10.2
		c2.6-3.3,7.3-4.3,11.1-2.1c3.7,2.1,5.2,6.5,3.8,10.3c4.7,1.9,9.6,3.4,14.8,4.3c1-4.1,4.8-7,9.1-6.6c4.2,0.4,7.4,3.7,7.8,7.7
		c5.2-0.2,10.3-1,15.2-2.3c-0.8-4.1,1.4-8.4,5.5-9.8c4-1.4,8.3,0.2,10.4,3.7c4.6-2.4,8.9-5.3,12.8-8.5c-2.5-3.4-2.2-8.2,0.8-11.2
		c3-3,7.6-3.3,11-1c3.1-4.1,5.8-8.5,8-13.1c-3.7-2-5.5-6.5-4-10.5c1.4-4,5.5-6.2,9.5-5.6c1.1-4.9,1.7-10,1.7-15.3
		C576.4-247.5,572.9-250.8,572.5-255.1z M506.2-211.1c-20.9,0-37.8-16.9-37.8-37.8c0-20.9,16.9-37.8,37.8-37.8
		c20.9,0,37.8,16.9,37.8,37.8C544-228.1,527.1-211.1,506.2-211.1z"/>
</g>
<g id="Layer_6">
	<g id="XMLID_15_" class="st0">
		<g id="XMLID_87_" class="st1">
			<g id="XMLID_90_" class="st3">
				<g id="XMLID_475_" class="st3">
					<defs>
						<path id="XMLID_482_" class="st3" d="M23.5,9.8l12.8-3.1c1.2-0.3,2.4-0.4,3.7-0.2L27.3,9.7C26,9.5,24.7,9.6,23.5,9.8z"/>
					</defs>
					<clipPath id="XMLID_97_">
						<use xlink:href="#XMLID_482_"  style="overflow:visible;"/>
					</clipPath>
					<g id="XMLID_476_" class="st4">
						<path id="XMLID_481_" class="st5" d="M23.5,9.8l12.8-3.1c0.2-0.1,0.5-0.1,0.7-0.1L24.2,9.7C24,9.7,23.8,9.8,23.5,9.8"/>
						<path id="XMLID_480_" class="st6" d="M24.2,9.7L37,6.6c0.3,0,0.6-0.1,0.9-0.1L25.2,9.6C24.9,9.6,24.6,9.6,24.2,9.7"/>
						<path id="XMLID_479_" class="st7" d="M25.2,9.6l12.8-3.1c0.3,0,0.5,0,0.8,0L26,9.6C25.7,9.6,25.4,9.6,25.2,9.6"/>
						<path id="XMLID_478_" class="st8" d="M26,9.6l12.8-3.1c0.2,0,0.5,0,0.7,0L26.7,9.6C26.5,9.6,26.2,9.6,26,9.6"/>
						<path id="XMLID_477_" class="st9" d="M26.7,9.6l12.8-3.1c0.2,0,0.4,0,0.6,0.1L27.3,9.7C27.1,9.6,26.9,9.6,26.7,9.6"/>
					</g>
				</g>
				<g id="XMLID_448_" class="st3">
					<defs>
						<path id="XMLID_474_" class="st3" d="M73.5,117.6l12.8-3.1c0.1,4.5,2.6,8.6,6.1,9.1l-12.8,3.1
							C76.1,126.3,73.6,122.1,73.5,117.6z"/>
					</defs>
					<clipPath id="XMLID_98_">
						<use xlink:href="#XMLID_474_"  style="overflow:visible;"/>
					</clipPath>
					<g id="XMLID_449_" class="st10">
						<path id="XMLID_473_" class="st11" d="M73.5,117.6l12.8-3.1c0,0.1,0,0.3,0,0.4L73.5,118C73.5,117.9,73.5,117.8,73.5,117.6"/>
						<path id="XMLID_472_" class="st12" d="M73.5,118l12.8-3.1c0,0.2,0,0.4,0,0.5l-12.8,3.1C73.6,118.4,73.6,118.2,73.5,118"/>
						<path id="XMLID_471_" class="st13" d="M73.6,118.5l12.8-3.1c0,0.2,0,0.4,0.1,0.6l-12.8,3.1C73.6,118.9,73.6,118.7,73.6,118.5"
							/>
						<path id="XMLID_470_" class="st14" d="M73.6,119.1l12.8-3.1c0,0.2,0.1,0.4,0.1,0.6l-12.8,3.1
							C73.7,119.5,73.7,119.3,73.6,119.1"/>
						<path id="XMLID_469_" class="st15" d="M73.8,119.7l12.8-3.1c0.1,0.3,0.1,0.5,0.2,0.8l-12.8,3.1
							C73.9,120.3,73.8,120,73.8,119.7"/>
						<path id="XMLID_468_" class="st16" d="M73.9,120.5l12.8-3.1c0.1,0.4,0.3,0.9,0.4,1.3l-12.8,3.1C74.2,121.4,74,121,73.9,120.5"
							/>
						<path id="XMLID_467_" class="st17" d="M74.3,121.8l12.8-3.1c0.1,0.3,0.3,0.7,0.5,1l-12.8,3.1
							C74.6,122.5,74.5,122.2,74.3,121.8"/>
						<path id="XMLID_466_" class="st16" d="M74.8,122.8l12.8-3.1c0.2,0.4,0.4,0.7,0.6,1.1l-12.8,3.1
							C75.2,123.6,75,123.2,74.8,122.8"/>
						<path id="XMLID_465_" class="st15" d="M75.4,123.9l12.8-3.1c0.1,0.2,0.3,0.4,0.4,0.5l-12.8,3.1
							C75.7,124.2,75.6,124.1,75.4,123.9"/>
						<path id="XMLID_464_" class="st14" d="M75.8,124.4l12.8-3.1c0.1,0.1,0.2,0.3,0.3,0.4l-12.8,3.1
							C76,124.7,75.9,124.5,75.8,124.4"/>
						<path id="XMLID_463_" class="st13" d="M76.1,124.8l12.8-3.1c0.1,0.1,0.2,0.2,0.3,0.3l-12.8,3.1
							C76.3,125,76.2,124.9,76.1,124.8"/>
						<path id="XMLID_462_" class="st12" d="M76.4,125.1l12.8-3.1c0.1,0.1,0.2,0.2,0.3,0.3l-12.8,3.1
							C76.6,125.3,76.5,125.2,76.4,125.1"/>
						<path id="XMLID_461_" class="st11" d="M76.7,125.4l12.8-3.1c0.1,0.1,0.2,0.1,0.3,0.2L77,125.6
							C76.9,125.5,76.8,125.4,76.7,125.4"/>
						<path id="XMLID_460_" class="st18" d="M77,125.6l12.8-3.1c0.1,0.1,0.2,0.1,0.3,0.2l-12.8,3.1C77.1,125.7,77.1,125.6,77,125.6"
							/>
						<path id="XMLID_459_" class="st19" d="M77.2,125.8l12.8-3.1c0.1,0.1,0.2,0.1,0.2,0.2l-12.8,3.1
							C77.4,125.9,77.3,125.8,77.2,125.8"/>
						<path id="XMLID_458_" class="st20" d="M77.5,125.9l12.8-3.1c0.1,0.1,0.2,0.1,0.2,0.2l-12.8,3.1C77.6,126,77.6,126,77.5,125.9"
							/>
						<path id="XMLID_457_" class="st21" d="M77.7,126.1l12.8-3.1c0.1,0,0.2,0.1,0.2,0.1L78,126.2C77.9,126.2,77.8,126.1,77.7,126.1
							"/>
						<path id="XMLID_456_" class="st22" d="M78,126.2l12.8-3.1c0.1,0,0.2,0.1,0.2,0.1l-12.8,3.1C78.1,126.3,78.1,126.3,78,126.2"/>
						<path id="XMLID_455_" class="st23" d="M78.2,126.4l12.8-3.1c0.1,0,0.2,0.1,0.3,0.1l-12.8,3.1
							C78.4,126.4,78.3,126.4,78.2,126.4"/>
						<path id="XMLID_454_" class="st24" d="M78.5,126.5l12.8-3.1c0.1,0,0.2,0.1,0.3,0.1l-12.8,3.1
							C78.6,126.5,78.6,126.5,78.5,126.5"/>
						<path id="XMLID_453_" class="st25" d="M78.7,126.6l12.8-3.1c0.1,0,0.2,0.1,0.3,0.1L79,126.6C78.9,126.6,78.8,126.6,78.7,126.6
							"/>
						<path id="XMLID_452_" class="st26" d="M79,126.6l12.8-3.1c0.1,0,0.2,0,0.3,0.1l-12.8,3.1C79.2,126.7,79.1,126.7,79,126.6"/>
						<path id="XMLID_451_" class="st27" d="M79.3,126.7l12.8-3.1c0.1,0,0.2,0,0.3,0.1l-12.8,3.1C79.5,126.8,79.4,126.7,79.3,126.7"
							/>
						<path id="XMLID_450_" class="st9" d="M79.6,126.8l12.8-3.1c0,0,0,0,0.1,0L79.6,126.8C79.6,126.8,79.6,126.8,79.6,126.8"/>
					</g>
				</g>
				<g id="XMLID_446_">
					<polygon id="XMLID_447_" class="st28" points="73.2,99.6 86,96.5 86.3,114.5 73.5,117.6 					"/>
				</g>
				<g id="XMLID_426_" class="st3">
					<defs>
						<path id="XMLID_445_" class="st3" d="M77.4,92.5l12.8-3.1C87.6,90,86,92.9,86,96.5l-12.8,3.1C73.2,96,74.8,93.1,77.4,92.5z"/>
					</defs>
					<clipPath id="XMLID_99_">
						<use xlink:href="#XMLID_445_"  style="overflow:visible;"/>
					</clipPath>
					<g id="XMLID_427_" class="st29">
						<path id="XMLID_444_" class="st30" d="M77.4,92.5l12.8-3.1c-0.9,0.2-1.6,0.7-2.2,1.3l-12.8,3.1C75.7,93.1,76.5,92.7,77.4,92.5
							"/>
						<path id="XMLID_443_" class="st5" d="M75.1,93.8l12.8-3.1c-0.1,0.1-0.2,0.3-0.4,0.4l-12.8,3.1C74.9,94.1,75,94,75.1,93.8"/>
						<path id="XMLID_442_" class="st6" d="M74.8,94.3l12.8-3.1c-0.1,0.1-0.2,0.3-0.3,0.4l-12.8,3.1C74.6,94.5,74.7,94.4,74.8,94.3"
							/>
						<path id="XMLID_441_" class="st7" d="M74.5,94.6l12.8-3.1c-0.1,0.1-0.1,0.2-0.2,0.4L74.3,95C74.3,94.9,74.4,94.8,74.5,94.6"/>
						<path id="XMLID_440_" class="st8" d="M74.3,95L87,91.9c-0.1,0.1-0.1,0.2-0.2,0.3l-12.8,3.1C74.2,95.2,74.2,95.1,74.3,95"/>
						<path id="XMLID_439_" class="st9" d="M74.1,95.3l12.8-3.1c-0.1,0.1-0.1,0.2-0.2,0.3l-12.8,3.1C74,95.6,74,95.5,74.1,95.3"/>
						<path id="XMLID_438_" class="st27" d="M73.9,95.7l12.8-3.1c0,0.1-0.1,0.2-0.1,0.3L73.8,96C73.9,95.9,73.9,95.8,73.9,95.7"/>
						<path id="XMLID_437_" class="st26" d="M73.8,96l12.8-3.1c0,0.1-0.1,0.2-0.1,0.3l-12.8,3.1C73.7,96.3,73.8,96.1,73.8,96"/>
						<path id="XMLID_436_" class="st25" d="M73.7,96.4l12.8-3.1c0,0.1-0.1,0.2-0.1,0.4l-12.8,3.1C73.6,96.6,73.7,96.5,73.7,96.4"/>
						<path id="XMLID_435_" class="st24" d="M73.6,96.7l12.8-3.1c0,0.1-0.1,0.2-0.1,0.4l-12.8,3.1C73.5,97,73.6,96.8,73.6,96.7"/>
						<path id="XMLID_434_" class="st23" d="M73.5,97.1L86.3,94c0,0.1-0.1,0.2-0.1,0.4l-12.8,3.1C73.4,97.3,73.5,97.2,73.5,97.1"/>
						<path id="XMLID_433_" class="st22" d="M73.4,97.5l12.8-3.1c0,0.1,0,0.3-0.1,0.4l-12.8,3.1C73.4,97.7,73.4,97.6,73.4,97.5"/>
						<path id="XMLID_432_" class="st21" d="M73.4,97.8l12.8-3.1c0,0.1,0,0.3-0.1,0.4l-12.8,3.1C73.3,98.1,73.3,98,73.4,97.8"/>
						<path id="XMLID_431_" class="st20" d="M73.3,98.2l12.8-3.1c0,0.1,0,0.3,0,0.4l-12.8,3.1C73.3,98.5,73.3,98.4,73.3,98.2"/>
						<path id="XMLID_430_" class="st19" d="M73.3,98.6L86,95.5c0,0.1,0,0.3,0,0.4l-12.8,3.1C73.3,98.9,73.3,98.8,73.3,98.6"/>
						<path id="XMLID_429_" class="st18" d="M73.3,99.1L86,96c0,0.2,0,0.3,0,0.5l-12.8,3.1C73.2,99.4,73.2,99.2,73.3,99.1"/>
						<path id="XMLID_428_" class="st11" d="M73.2,99.5L86,96.4c0,0,0,0.1,0,0.1l-12.8,3.1C73.2,99.6,73.2,99.6,73.2,99.5"/>
					</g>
				</g>
				<g id="XMLID_399_" class="st3">
					<defs>
						<path id="XMLID_425_" class="st3" d="M116.4,157.9l12.8-3.1c0.1,4.5,2.5,8.7,6,9.2l-12.8,3.1
							C118.9,166.6,116.5,162.4,116.4,157.9z"/>
					</defs>
					<clipPath id="XMLID_100_">
						<use xlink:href="#XMLID_425_"  style="overflow:visible;"/>
					</clipPath>
					<g id="XMLID_400_" class="st31">
						<path id="XMLID_424_" class="st11" d="M116.4,157.9l12.8-3.1c0,0.1,0,0.3,0,0.4l-12.8,3.1C116.4,158.2,116.4,158,116.4,157.9"
							/>
						<path id="XMLID_423_" class="st12" d="M116.4,158.3l12.8-3.1c0,0.2,0,0.4,0,0.5l-12.8,3.1
							C116.4,158.7,116.4,158.5,116.4,158.3"/>
						<path id="XMLID_422_" class="st13" d="M116.5,158.8l12.8-3.1c0,0.2,0,0.4,0.1,0.6l-12.8,3.1
							C116.5,159.2,116.5,159,116.5,158.8"/>
						<path id="XMLID_421_" class="st14" d="M116.5,159.4l12.8-3.1c0,0.2,0.1,0.4,0.1,0.7l-12.8,3.1
							C116.6,159.9,116.6,159.6,116.5,159.4"/>
						<path id="XMLID_420_" class="st15" d="M116.6,160.1l12.8-3.1c0.1,0.3,0.1,0.5,0.2,0.8l-12.8,3.1
							C116.7,160.6,116.7,160.4,116.6,160.1"/>
						<path id="XMLID_419_" class="st16" d="M116.8,160.9l12.8-3.1c0.1,0.4,0.3,0.9,0.4,1.3l-12.8,3.1
							C117.1,161.8,116.9,161.3,116.8,160.9"/>
						<path id="XMLID_418_" class="st17" d="M117.2,162.2l12.8-3.1c0.1,0.4,0.3,0.7,0.5,1l-12.8,3.1
							C117.5,162.9,117.4,162.5,117.2,162.2"/>
						<path id="XMLID_417_" class="st16" d="M117.7,163.2l12.8-3.1c0.2,0.4,0.4,0.7,0.6,1.1l-12.8,3.1
							C118.1,163.9,117.9,163.6,117.7,163.2"/>
						<path id="XMLID_416_" class="st15" d="M118.3,164.3l12.8-3.1c0.1,0.2,0.3,0.4,0.4,0.5l-12.8,3.1
							C118.6,164.6,118.4,164.4,118.3,164.3"/>
						<path id="XMLID_415_" class="st14" d="M118.7,164.8l12.8-3.1c0.1,0.1,0.2,0.3,0.3,0.4l-12.8,3.1
							C118.9,165,118.8,164.9,118.7,164.8"/>
						<path id="XMLID_414_" class="st13" d="M119,165.2l12.8-3.1c0.1,0.1,0.2,0.2,0.3,0.3l-12.8,3.1
							C119.2,165.4,119.1,165.3,119,165.2"/>
						<path id="XMLID_413_" class="st12" d="M119.3,165.5l12.8-3.1c0.1,0.1,0.2,0.2,0.3,0.3l-12.8,3.1
							C119.5,165.6,119.4,165.5,119.3,165.5"/>
						<path id="XMLID_412_" class="st11" d="M119.6,165.7l12.8-3.1c0.1,0.1,0.2,0.1,0.2,0.2l-12.8,3.1
							C119.7,165.9,119.7,165.8,119.6,165.7"/>
						<path id="XMLID_411_" class="st18" d="M119.8,165.9l12.8-3.1c0.1,0.1,0.2,0.1,0.2,0.2l-12.8,3.1
							C120,166,119.9,166,119.8,165.9"/>
						<path id="XMLID_410_" class="st19" d="M120.1,166.1l12.8-3.1c0.1,0.1,0.2,0.1,0.2,0.2l-12.8,3.1
							C120.2,166.2,120.2,166.2,120.1,166.1"/>
						<path id="XMLID_409_" class="st20" d="M120.3,166.3l12.8-3.1c0.1,0.1,0.2,0.1,0.2,0.1l-12.8,3.1
							C120.5,166.4,120.4,166.3,120.3,166.3"/>
						<path id="XMLID_408_" class="st21" d="M120.6,166.4l12.8-3.1c0.1,0,0.2,0.1,0.2,0.1l-12.8,3.1
							C120.7,166.5,120.6,166.5,120.6,166.4"/>
						<path id="XMLID_407_" class="st22" d="M120.8,166.6l12.8-3.1c0.1,0,0.2,0.1,0.2,0.1l-12.8,3.1
							C121,166.6,120.9,166.6,120.8,166.6"/>
						<path id="XMLID_406_" class="st23" d="M121,166.7l12.8-3.1c0.1,0,0.2,0.1,0.2,0.1l-12.8,3.1
							C121.2,166.7,121.1,166.7,121,166.7"/>
						<path id="XMLID_405_" class="st24" d="M121.3,166.8l12.8-3.1c0.1,0,0.2,0.1,0.3,0.1l-12.8,3.1
							C121.5,166.8,121.4,166.8,121.3,166.8"/>
						<path id="XMLID_404_" class="st25" d="M121.5,166.9l12.8-3.1c0.1,0,0.2,0.1,0.3,0.1l-12.8,3.1
							C121.7,166.9,121.6,166.9,121.5,166.9"/>
						<path id="XMLID_403_" class="st26" d="M121.8,167l12.8-3.1c0.1,0,0.2,0,0.3,0.1l-12.8,3.1C122,167,121.9,167,121.8,167"/>
						<path id="XMLID_402_" class="st27" d="M122.1,167l12.8-3.1c0.1,0,0.2,0,0.3,0.1l-12.8,3.1C122.3,167.1,122.2,167,122.1,167"/>
						<path id="XMLID_401_" class="st9" d="M122.4,167.1l12.8-3.1c0,0,0,0,0.1,0L122.4,167.1C122.4,167.1,122.4,167.1,122.4,167.1"
							/>
					</g>
				</g>
				<g id="XMLID_397_">
					<polygon id="XMLID_398_" class="st32" points="79.6,126.8 92.4,123.7 128.8,128.8 116,131.9 					"/>
				</g>
				<g id="XMLID_395_">
					<polygon id="XMLID_396_" class="st28" points="116,131.9 128.8,128.8 129.2,154.8 116.4,157.9 					"/>
				</g>
				<g id="XMLID_393_">
					<polygon id="XMLID_394_" class="st32" points="122.4,167.1 135.2,164 201.6,173.3 188.9,176.4 					"/>
				</g>
				<g id="XMLID_391_">
					<polygon id="XMLID_392_" class="st28" points="188.9,176.4 201.6,173.3 201.8,182.1 189,185.2 					"/>
				</g>
				<g id="XMLID_364_" class="st3">
					<defs>
						<path id="XMLID_390_" class="st3" d="M189,185.2l12.8-3.1c0.1,4.5,2.8,8.3,6.3,8.8l-12.8,3.1
							C191.8,193.5,189.1,189.6,189,185.2z"/>
					</defs>
					<clipPath id="XMLID_101_">
						<use xlink:href="#XMLID_390_"  style="overflow:visible;"/>
					</clipPath>
					<g id="XMLID_365_" class="st33">
						<path id="XMLID_389_" class="st11" d="M189,185.2l12.8-3.1c0,0.1,0,0.2,0,0.4l-12.8,3.1C189,185.4,189,185.3,189,185.2"/>
						<path id="XMLID_388_" class="st12" d="M189,185.5l12.8-3.1c0,0.2,0,0.3,0,0.5l-12.8,3.1C189.1,185.8,189,185.7,189,185.5"/>
						<path id="XMLID_387_" class="st13" d="M189.1,186l12.8-3.1c0,0.2,0,0.3,0.1,0.5l-12.8,3.1C189.1,186.3,189.1,186.2,189.1,186"
							/>
						<path id="XMLID_386_" class="st14" d="M189.1,186.5l12.8-3.1c0,0.2,0.1,0.4,0.1,0.6l-12.8,3.1
							C189.2,186.9,189.2,186.7,189.1,186.5"/>
						<path id="XMLID_385_" class="st15" d="M189.2,187.1L202,184c0,0.2,0.1,0.5,0.2,0.7l-12.8,3.1
							C189.3,187.6,189.3,187.3,189.2,187.1"/>
						<path id="XMLID_384_" class="st16" d="M189.4,187.8l12.8-3.1c0.1,0.4,0.2,0.8,0.4,1.1l-12.8,3.1
							C189.6,188.6,189.5,188.2,189.4,187.8"/>
						<path id="XMLID_383_" class="st17" d="M189.7,188.9l12.8-3.1c0.1,0.4,0.3,0.7,0.5,1l-12.8,3.1
							C190,189.6,189.9,189.3,189.7,188.9"/>
						<path id="XMLID_382_" class="st16" d="M190.2,190l12.8-3.1c0.2,0.4,0.4,0.7,0.6,1l-12.8,3.1
							C190.6,190.6,190.4,190.3,190.2,190"/>
						<path id="XMLID_381_" class="st15" d="M190.8,191l12.8-3.1c0.1,0.2,0.3,0.4,0.4,0.5l-12.8,3.1
							C191.1,191.3,190.9,191.1,190.8,191"/>
						<path id="XMLID_380_" class="st14" d="M191.2,191.5l12.8-3.1c0.1,0.1,0.2,0.3,0.3,0.4l-12.8,3.1
							C191.4,191.8,191.3,191.6,191.2,191.5"/>
						<path id="XMLID_379_" class="st13" d="M191.5,191.9l12.8-3.1c0.1,0.1,0.2,0.2,0.3,0.3l-12.8,3.1
							C191.7,192.1,191.6,192,191.5,191.9"/>
						<path id="XMLID_378_" class="st12" d="M191.8,192.2l12.8-3.1c0.1,0.1,0.2,0.2,0.3,0.3l-12.8,3.1
							C192,192.4,191.9,192.3,191.8,192.2"/>
						<path id="XMLID_377_" class="st11" d="M192.1,192.5l12.8-3.1c0.1,0.1,0.2,0.2,0.3,0.2l-12.8,3.1
							C192.3,192.6,192.2,192.5,192.1,192.5"/>
						<path id="XMLID_376_" class="st18" d="M192.4,192.7l12.8-3.1c0.1,0.1,0.2,0.1,0.3,0.2l-12.8,3.1
							C192.6,192.8,192.5,192.8,192.4,192.7"/>
						<path id="XMLID_375_" class="st19" d="M192.7,192.9l12.8-3.1c0.1,0.1,0.2,0.1,0.3,0.2l-12.8,3.1
							C192.8,193,192.7,193,192.7,192.9"/>
						<path id="XMLID_374_" class="st20" d="M192.9,193.1l12.8-3.1c0.1,0.1,0.2,0.1,0.3,0.2l-12.8,3.1
							C193.1,193.2,193,193.1,192.9,193.1"/>
						<path id="XMLID_373_" class="st21" d="M193.2,193.2l12.8-3.1c0.1,0.1,0.2,0.1,0.3,0.1l-12.8,3.1
							C193.4,193.3,193.3,193.3,193.2,193.2"/>
						<path id="XMLID_372_" class="st22" d="M193.5,193.4l12.8-3.1c0.1,0,0.2,0.1,0.3,0.1l-12.8,3.1
							C193.6,193.5,193.5,193.4,193.5,193.4"/>
						<path id="XMLID_371_" class="st23" d="M193.7,193.5l12.8-3.1c0.1,0,0.2,0.1,0.3,0.1l-12.8,3.1
							C193.9,193.6,193.8,193.6,193.7,193.5"/>
						<path id="XMLID_370_" class="st24" d="M194,193.6l12.8-3.1c0.1,0,0.2,0.1,0.3,0.1l-12.8,3.1
							C194.2,193.7,194.1,193.7,194,193.6"/>
						<path id="XMLID_369_" class="st25" d="M194.3,193.7l12.8-3.1c0.1,0,0.2,0.1,0.3,0.1l-12.8,3.1
							C194.5,193.8,194.4,193.8,194.3,193.7"/>
						<path id="XMLID_368_" class="st26" d="M194.6,193.8l12.8-3.1c0.1,0,0.2,0.1,0.3,0.1l-12.8,3.1
							C194.8,193.9,194.7,193.9,194.6,193.8"/>
						<path id="XMLID_367_" class="st27" d="M194.9,193.9l12.8-3.1c0.1,0,0.2,0,0.3,0.1l-12.8,3.1C195.1,194,195,193.9,194.9,193.9"
							/>
						<path id="XMLID_366_" class="st9" d="M195.2,194l12.8-3.1c0,0,0,0,0.1,0L195.2,194C195.3,194,195.2,194,195.2,194"/>
					</g>
				</g>
				<g id="XMLID_362_">
					<polygon id="XMLID_363_" class="st32" points="195.3,194 208.1,190.9 258.9,198 246.1,201.1 					"/>
				</g>
				<g id="XMLID_354_" class="st3">
					<defs>
						<path id="XMLID_361_" class="st3" d="M260.7,198l-12.8,3.1c-0.6,0.1-1.2,0.2-1.8,0.1l12.8-3.1
							C259.6,198.1,260.2,198.1,260.7,198z"/>
					</defs>
					<clipPath id="XMLID_102_">
						<use xlink:href="#XMLID_361_"  style="overflow:visible;"/>
					</clipPath>
					<g id="XMLID_355_" class="st34">
						<path id="XMLID_360_" class="st9" d="M246.1,201.1l12.8-3.1c0.1,0,0.2,0,0.3,0l-12.8,3.1C246.3,201.2,246.2,201.1,246.1,201.1
							"/>
						<path id="XMLID_359_" class="st8" d="M246.4,201.2l12.8-3.1c0.1,0,0.2,0,0.4,0l-12.8,3.1C246.7,201.2,246.6,201.2,246.4,201.2
							"/>
						<path id="XMLID_358_" class="st7" d="M246.8,201.2l12.8-3.1c0.1,0,0.3,0,0.4,0l-12.8,3.1C247.1,201.2,246.9,201.2,246.8,201.2
							"/>
						<path id="XMLID_357_" class="st6" d="M247.2,201.2l12.8-3.1c0.1,0,0.3,0,0.4-0.1l-12.8,3.1
							C247.5,201.1,247.3,201.2,247.2,201.2"/>
						<path id="XMLID_356_" class="st5" d="M247.6,201.1l12.8-3.1c0.1,0,0.2,0,0.3-0.1l-12.8,3.1
							C247.8,201.1,247.7,201.1,247.6,201.1"/>
					</g>
				</g>
				<g id="XMLID_334_" class="st3">
					<defs>
						<path id="XMLID_353_" class="st3" d="M302.2,275l-12.8,3.1c5.4-1.3,9.2-7.1,9.1-14.7l12.8-3.1
							C311.4,267.8,307.6,273.7,302.2,275z"/>
					</defs>
					<clipPath id="XMLID_103_">
						<use xlink:href="#XMLID_353_"  style="overflow:visible;"/>
					</clipPath>
					<g id="XMLID_335_" class="st35">
						<path id="XMLID_352_" class="st11" d="M298.5,263.3l12.8-3.1c0,0.1,0,0.1,0,0.2l-12.8,3.1
							C298.5,263.5,298.5,263.4,298.5,263.3"/>
						<path id="XMLID_351_" class="st18" d="M298.5,263.6l12.8-3.1c0,0.3,0,0.6,0,0.8l-12.8,3.1
							C298.5,264.1,298.5,263.8,298.5,263.6"/>
						<path id="XMLID_350_" class="st19" d="M298.5,264.4l12.8-3.1c0,0.3,0,0.5,0,0.8l-12.8,3.1
							C298.5,264.9,298.5,264.7,298.5,264.4"/>
						<path id="XMLID_349_" class="st20" d="M298.5,265.2l12.8-3.1c0,0.3,0,0.5-0.1,0.8l-12.8,3.1
							C298.5,265.7,298.5,265.4,298.5,265.2"/>
						<path id="XMLID_348_" class="st21" d="M298.4,265.9l12.8-3.1c0,0.2-0.1,0.5-0.1,0.7l-12.8,3.1
							C298.4,266.4,298.4,266.2,298.4,265.9"/>
						<path id="XMLID_347_" class="st22" d="M298.3,266.7l12.8-3.1c0,0.2-0.1,0.5-0.1,0.7l-12.8,3.1
							C298.3,267.2,298.3,266.9,298.3,266.7"/>
						<path id="XMLID_346_" class="st23" d="M298.2,267.4l12.8-3.1c0,0.2-0.1,0.5-0.1,0.7l-12.8,3.1
							C298.1,267.9,298.2,267.6,298.2,267.4"/>
						<path id="XMLID_345_" class="st24" d="M298.1,268.1l12.8-3.1c-0.1,0.2-0.1,0.5-0.2,0.7l-12.8,3.1
							C298,268.6,298,268.3,298.1,268.1"/>
						<path id="XMLID_344_" class="st25" d="M297.9,268.8l12.8-3.1c-0.1,0.2-0.1,0.5-0.2,0.7l-12.8,3.1
							C297.8,269.3,297.8,269,297.9,268.8"/>
						<path id="XMLID_343_" class="st26" d="M297.7,269.5l12.8-3.1c-0.1,0.2-0.2,0.5-0.2,0.7l-12.8,3.1
							C297.5,270,297.6,269.7,297.7,269.5"/>
						<path id="XMLID_342_" class="st27" d="M297.4,270.2l12.8-3.1c-0.1,0.2-0.2,0.5-0.3,0.7l-12.8,3.1
							C297.3,270.7,297.4,270.4,297.4,270.2"/>
						<path id="XMLID_341_" class="st9" d="M297.2,270.9l12.8-3.1c-0.1,0.2-0.2,0.5-0.3,0.7l-12.8,3.1
							C297,271.4,297.1,271.1,297.2,270.9"/>
						<path id="XMLID_340_" class="st8" d="M296.8,271.6l12.8-3.1c-0.1,0.3-0.3,0.5-0.4,0.7l-12.8,3.1
							C296.6,272.1,296.7,271.9,296.8,271.6"/>
						<path id="XMLID_339_" class="st7" d="M296.5,272.4l12.8-3.1c-0.1,0.3-0.3,0.5-0.5,0.8l-12.8,3.1
							C296.2,272.9,296.3,272.6,296.5,272.4"/>
						<path id="XMLID_338_" class="st6" d="M296,273.1l12.8-3.1c-0.2,0.3-0.4,0.6-0.6,0.8l-12.8,3.1
							C295.6,273.7,295.8,273.4,296,273.1"/>
						<path id="XMLID_337_" class="st5" d="M295.4,274l12.8-3.1c-0.3,0.4-0.5,0.7-0.8,1l-12.8,3.1
							C294.9,274.7,295.1,274.3,295.4,274"/>
						<path id="XMLID_336_" class="st30" d="M294.6,275l12.8-3.1c-1.4,1.5-3.2,2.6-5.1,3.1l-12.8,3.1
							C291.4,277.6,293.1,276.5,294.6,275"/>
					</g>
				</g>
				<g id="XMLID_332_">
					<polygon id="XMLID_333_" class="st32" points="27.3,9.7 40,6.6 294.8,42.4 282,45.5 					"/>
				</g>
				<g id="XMLID_330_">
					<polygon id="XMLID_331_" class="st28" points="295.4,64 308.1,60.9 311.3,260.3 298.5,263.3 					"/>
				</g>
				<g id="XMLID_326_">
					<path id="XMLID_327_" class="st36" d="M282,45.5c7.2,1,13.2,9.3,13.4,18.6l3.2,199.3c0.1,9.2-5.6,15.9-12.8,14.9L31,242.4
						c-7.2-1-13.2-9.3-13.4-18.6L14.5,24.5C14.3,15.3,20,8.7,27.3,9.7L282,45.5z M252.1,194l-0.3-18c-0.1-4.5-2.7-8.8-6.2-9.3
						l-41.6-5.8l-0.3-21.2c-0.1-4.5-2.5-8.6-6-9.1l-61.1-8.6l-0.2-13.5c-0.1-4.5-2.9-8.5-6.4-9l-50.9-7.1c-3.5-0.5-5.9,2.8-5.8,7.2
						l0.3,18c0.1,4.5,2.6,8.6,6.1,9.1l36.3,5.1l0.4,26c0.1,4.5,2.5,8.7,6,9.2l66.4,9.3l0.1,8.7c0.1,4.5,2.8,8.3,6.3,8.8l50.9,7.1
						C249.6,201.6,252.2,198.5,252.1,194"/>
				</g>
				<g id="XMLID_92_" class="st3">
					<defs>
						<path id="XMLID_325_" class="st3" d="M282,45.5l12.8-3.1c7.2,1,13.2,9.3,13.4,18.6L295.4,64C295.2,54.8,289.2,46.5,282,45.5z"
							/>
					</defs>
					<clipPath id="XMLID_104_">
						<use xlink:href="#XMLID_325_"  style="overflow:visible;"/>
					</clipPath>
					<g id="XMLID_93_" class="st37">
						<path id="XMLID_324_" class="st9" d="M282,45.5l12.8-3.1c0,0,0.1,0,0.1,0l-12.8,3.1C282.1,45.5,282,45.5,282,45.5"/>
						<path id="XMLID_323_" class="st27" d="M282.1,45.5l12.8-3.1c0.2,0,0.4,0.1,0.7,0.1l-12.8,3.1
							C282.6,45.6,282.3,45.5,282.1,45.5"/>
						<path id="XMLID_322_" class="st26" d="M282.8,45.6l12.8-3.1c0.2,0,0.4,0.1,0.6,0.2l-12.8,3.1C283.2,45.7,283,45.7,282.8,45.6"
							/>
						<path id="XMLID_321_" class="st25" d="M283.4,45.8l12.8-3.1c0.2,0.1,0.4,0.1,0.6,0.2L284,46C283.8,45.9,283.6,45.8,283.4,45.8
							"/>
						<path id="XMLID_320_" class="st24" d="M284,46l12.8-3.1c0.2,0.1,0.4,0.1,0.6,0.2l-12.8,3.1C284.4,46.1,284.2,46,284,46"/>
						<path id="XMLID_319_" class="st23" d="M284.6,46.2l12.8-3.1c0.2,0.1,0.4,0.2,0.6,0.2l-12.8,3.1
							C285,46.3,284.8,46.2,284.6,46.2"/>
						<path id="XMLID_318_" class="st22" d="M285.2,46.4l12.8-3.1c0.2,0.1,0.4,0.2,0.6,0.3l-12.8,3.1
							C285.6,46.6,285.4,46.5,285.2,46.4"/>
						<path id="XMLID_317_" class="st21" d="M285.8,46.7l12.8-3.1c0.2,0.1,0.4,0.2,0.6,0.3L286.3,47C286.1,46.9,286,46.8,285.8,46.7
							"/>
						<path id="XMLID_316_" class="st20" d="M286.3,47l12.8-3.1c0.2,0.1,0.4,0.2,0.6,0.4l-12.8,3.1C286.7,47.2,286.5,47.1,286.3,47"
							/>
						<path id="XMLID_315_" class="st19" d="M286.9,47.4l12.8-3.1c0.2,0.1,0.4,0.3,0.6,0.4l-12.8,3.1
							C287.3,47.6,287.1,47.5,286.9,47.4"/>
						<path id="XMLID_314_" class="st18" d="M287.5,47.8l12.8-3.1c0.2,0.1,0.4,0.3,0.6,0.4l-12.8,3.1
							C287.9,48.1,287.7,47.9,287.5,47.8"/>
						<path id="XMLID_313_" class="st11" d="M288.1,48.2l12.8-3.1c0.2,0.2,0.4,0.3,0.6,0.5l-12.8,3.1
							C288.5,48.5,288.3,48.4,288.1,48.2"/>
						<path id="XMLID_312_" class="st12" d="M288.7,48.7l12.8-3.1c0.2,0.2,0.4,0.4,0.6,0.6l-12.8,3.1
							C289.1,49.1,288.9,48.9,288.7,48.7"/>
						<path id="XMLID_311_" class="st13" d="M289.3,49.3l12.8-3.1c0.2,0.2,0.5,0.5,0.7,0.7L290,50C289.8,49.8,289.5,49.5,289.3,49.3
							"/>
						<path id="XMLID_310_" class="st14" d="M290,50l12.8-3.1c0.3,0.3,0.5,0.6,0.7,0.9l-12.8,3.1C290.5,50.6,290.2,50.3,290,50"/>
						<path id="XMLID_309_" class="st15" d="M290.7,50.9l12.8-3.1c0.3,0.4,0.6,0.8,0.9,1.2L291.6,52C291.3,51.6,291,51.2,290.7,50.9
							"/>
						<path id="XMLID_308_" class="st16" d="M291.6,52l12.8-3.1c0.5,0.7,0.9,1.5,1.3,2.3l-12.8,3.1C292.5,53.5,292.1,52.8,291.6,52"
							/>
						<path id="XMLID_307_" class="st17" d="M292.9,54.3l12.8-3.1c0.3,0.7,0.6,1.3,0.9,2l-12.8,3.1C293.6,55.6,293.3,55,292.9,54.3"
							/>
						<path id="XMLID_306_" class="st16" d="M293.9,56.4l12.8-3.1c0.3,0.8,0.6,1.6,0.8,2.4l-12.8,3.1
							C294.4,58,294.2,57.1,293.9,56.4"/>
						<path id="XMLID_305_" class="st15" d="M294.6,58.8l12.8-3.1c0.1,0.5,0.2,0.9,0.3,1.4L295,60.2
							C294.9,59.7,294.8,59.3,294.6,58.8"/>
						<path id="XMLID_304_" class="st14" d="M295,60.2l12.8-3.1c0.1,0.4,0.1,0.8,0.2,1.2l-12.8,3.1C295.1,61,295,60.6,295,60.2"/>
						<path id="XMLID_303_" class="st13" d="M295.1,61.4l12.8-3.1c0,0.3,0.1,0.7,0.1,1l-12.8,3.1C295.2,62.1,295.2,61.7,295.1,61.4"
							/>
						<path id="XMLID_302_" class="st12" d="M295.3,62.4l12.8-3.1c0,0.3,0,0.6,0.1,0.9l-12.8,3.1C295.3,63,295.3,62.7,295.3,62.4"/>
						<path id="XMLID_94_" class="st11" d="M295.3,63.3l12.8-3.1c0,0.2,0,0.5,0,0.7L295.4,64C295.3,63.8,295.3,63.6,295.3,63.3"/>
					</g>
				</g>
			</g>
		</g>
	</g>
	<g id="XMLID_2_" class="st0">
		<g id="XMLID_50_" class="st1">
			<g id="XMLID_60_">
				<polygon id="XMLID_65_" class="st38" points="65,25.1 65.2,36.2 35.1,32 34.9,20.9 				"/>
			</g>
		</g>
	</g>
	<g id="XMLID_5_" class="st0">
		<g id="XMLID_48_" class="st1">
			<g id="XMLID_55_">
				<polygon id="XMLID_57_" class="st38" points="282.2,55.4 282.4,66.5 74.6,37.3 74.4,26.2 				"/>
			</g>
		</g>
	</g>
	<g id="XMLID_6_">
		<g id="XMLID_105_">
			<g id="XMLID_259_" class="st3">
				<g id="XMLID_557_" class="st3">
					<defs>
						<path id="XMLID_564_" class="st3" d="M69.4,86.1l8.3-2c0.5-0.1,1.1-0.2,1.7-0.1l-8.3,2C70.5,85.9,69.9,86,69.4,86.1z"/>
					</defs>
					<clipPath id="XMLID_106_">
						<use xlink:href="#XMLID_564_"  style="overflow:visible;"/>
					</clipPath>
					<g id="XMLID_558_" class="st39">
						<path id="XMLID_563_" class="st40" d="M69.4,86.1l8.3-2c0.1,0,0.2,0,0.3-0.1l-8.3,2C69.6,86.1,69.5,86.1,69.4,86.1"/>
						<path id="XMLID_562_" class="st41" d="M69.7,86l8.3-2c0.1,0,0.3,0,0.4,0l-8.3,2C70,86,69.9,86,69.7,86"/>
						<path id="XMLID_561_" class="st42" d="M70.1,86l8.3-2c0.1,0,0.2,0,0.4,0l-8.3,2C70.4,86,70.3,86,70.1,86"/>
						<path id="XMLID_560_" class="st43" d="M70.5,86l8.3-2c0.1,0,0.2,0,0.4,0l-8.3,2C70.7,86,70.6,86,70.5,86"/>
						<path id="XMLID_559_" class="st44" d="M70.9,86l8.3-2c0.1,0,0.2,0,0.3,0l-8.3,2C71,86,71,86,70.9,86"/>
					</g>
				</g>
				<g id="XMLID_555_">
					<polygon id="XMLID_556_" class="st45" points="71.1,86 79.4,84 130.3,91.2 122,93.2 					"/>
				</g>
				<g id="XMLID_553_">
					<polygon id="XMLID_554_" class="st46" points="128.4,102.1 136.7,100.1 136.9,113.7 128.6,115.7 					"/>
				</g>
				<g id="XMLID_526_" class="st3">
					<defs>
						<path id="XMLID_552_" class="st3" d="M122,93.2l8.3-2c3.5,0.5,6.3,4.5,6.4,9l-8.3,2C128.3,97.7,125.5,93.7,122,93.2z"/>
					</defs>
					<clipPath id="XMLID_107_">
						<use xlink:href="#XMLID_552_"  style="overflow:visible;"/>
					</clipPath>
					<g id="XMLID_527_" class="st47">
						<path id="XMLID_551_" class="st44" d="M122,93.2l8.3-2c0,0,0,0,0.1,0L122,93.2C122,93.2,122,93.2,122,93.2"/>
						<path id="XMLID_550_" class="st48" d="M122.1,93.2l8.3-2c0.1,0,0.2,0,0.3,0.1l-8.3,2C122.3,93.2,122.2,93.2,122.1,93.2"/>
						<path id="XMLID_549_" class="st49" d="M122.4,93.2l8.3-2c0.1,0,0.2,0,0.3,0.1l-8.3,2C122.6,93.3,122.5,93.3,122.4,93.2"/>
						<path id="XMLID_548_" class="st50" d="M122.7,93.3l8.3-2c0.1,0,0.2,0.1,0.3,0.1l-8.3,2C122.9,93.4,122.8,93.3,122.7,93.3"/>
						<path id="XMLID_547_" class="st51" d="M123,93.4l8.3-2c0.1,0,0.2,0.1,0.3,0.1l-8.3,2C123.2,93.5,123.1,93.4,123,93.4"/>
						<path id="XMLID_546_" class="st52" d="M123.3,93.5l8.3-2c0.1,0,0.2,0.1,0.3,0.1l-8.3,2C123.5,93.6,123.4,93.6,123.3,93.5"/>
						<path id="XMLID_545_" class="st53" d="M123.5,93.6l8.3-2c0.1,0,0.2,0.1,0.3,0.1l-8.3,2C123.7,93.7,123.6,93.7,123.5,93.6"/>
						<path id="XMLID_544_" class="st54" d="M123.8,93.8l8.3-2c0.1,0,0.2,0.1,0.3,0.1l-8.3,2C124,93.9,123.9,93.8,123.8,93.8"/>
						<path id="XMLID_543_" class="st55" d="M124.1,93.9l8.3-2c0.1,0.1,0.2,0.1,0.3,0.2l-8.3,2C124.3,94,124.2,94,124.1,93.9"/>
						<path id="XMLID_542_" class="st56" d="M124.4,94.1l8.3-2c0.1,0.1,0.2,0.1,0.3,0.2l-8.3,2C124.5,94.2,124.5,94.1,124.4,94.1"/>
						<path id="XMLID_541_" class="st57" d="M124.6,94.3l8.3-2c0.1,0.1,0.2,0.1,0.3,0.2l-8.3,2C124.8,94.4,124.7,94.3,124.6,94.3"/>
						<path id="XMLID_540_" class="st58" d="M124.9,94.5l8.3-2c0.1,0.1,0.2,0.2,0.3,0.2l-8.3,2C125.1,94.6,125,94.6,124.9,94.5"/>
						<path id="XMLID_539_" class="st59" d="M125.2,94.7l8.3-2c0.1,0.1,0.2,0.2,0.3,0.3l-8.3,2C125.4,94.9,125.3,94.8,125.2,94.7"/>
						<path id="XMLID_538_" class="st60" d="M125.5,95l8.3-2c0.1,0.1,0.2,0.2,0.3,0.3l-8.3,2C125.7,95.2,125.6,95.1,125.5,95"/>
						<path id="XMLID_537_" class="st61" d="M125.8,95.3l8.3-2c0.1,0.1,0.2,0.3,0.3,0.4l-8.3,2C126,95.6,125.9,95.5,125.8,95.3"/>
						<path id="XMLID_536_" class="st62" d="M126.2,95.7l8.3-2c0.1,0.2,0.3,0.4,0.4,0.6l-8.3,2C126.4,96.1,126.3,95.9,126.2,95.7"/>
						<path id="XMLID_535_" class="st63" d="M126.6,96.3l8.3-2c0.2,0.3,0.4,0.7,0.6,1.1l-8.3,2C127,97,126.8,96.6,126.6,96.3"/>
						<path id="XMLID_534_" class="st64" d="M127.2,97.4l8.3-2c0.2,0.3,0.3,0.7,0.5,1l-8.3,2C127.5,98,127.4,97.7,127.2,97.4"/>
						<path id="XMLID_533_" class="st63" d="M127.7,98.4l8.3-2c0.1,0.4,0.3,0.8,0.4,1.2l-8.3,2C127.9,99.2,127.8,98.8,127.7,98.4"/>
						<path id="XMLID_532_" class="st62" d="M128,99.6l8.3-2c0.1,0.2,0.1,0.5,0.2,0.7l-8.3,2C128.2,100,128.1,99.8,128,99.6"/>
						<path id="XMLID_531_" class="st61" d="M128.2,100.3l8.3-2c0,0.2,0.1,0.4,0.1,0.6l-8.3,2C128.3,100.6,128.2,100.4,128.2,100.3"
							/>
						<path id="XMLID_530_" class="st60" d="M128.3,100.8l8.3-2c0,0.2,0,0.3,0.1,0.5l-8.3,2C128.3,101.2,128.3,101,128.3,100.8"/>
						<path id="XMLID_529_" class="st59" d="M128.3,101.3l8.3-2c0,0.2,0,0.3,0,0.5l-8.3,2C128.4,101.6,128.4,101.5,128.3,101.3"/>
						<path id="XMLID_528_" class="st58" d="M128.4,101.8l8.3-2c0,0.1,0,0.2,0,0.3l-8.3,2C128.4,102,128.4,101.9,128.4,101.8"/>
					</g>
				</g>
				<g id="XMLID_524_">
					<polygon id="XMLID_525_" class="st45" points="128.6,115.7 136.9,113.7 198,122.2 189.7,124.3 					"/>
				</g>
				<g id="XMLID_522_">
					<polygon id="XMLID_523_" class="st46" points="195.7,133.4 204,131.3 204.3,152.5 196,154.5 					"/>
				</g>
				<g id="XMLID_495_" class="st3">
					<defs>
						<path id="XMLID_521_" class="st3" d="M189.7,124.3l8.3-2c3.5,0.5,5.9,4.6,6,9.1l-8.3,2C195.6,128.9,193.2,124.7,189.7,124.3z"
							/>
					</defs>
					<clipPath id="XMLID_108_">
						<use xlink:href="#XMLID_521_"  style="overflow:visible;"/>
					</clipPath>
					<g id="XMLID_496_" class="st65">
						<path id="XMLID_520_" class="st44" d="M189.7,124.3l8.3-2c0,0,0,0,0.1,0L189.7,124.3C189.8,124.3,189.8,124.3,189.7,124.3"/>
						<path id="XMLID_519_" class="st48" d="M189.8,124.3l8.3-2c0.1,0,0.2,0,0.3,0.1l-8.3,2C190,124.3,189.9,124.3,189.8,124.3"/>
						<path id="XMLID_518_" class="st49" d="M190.1,124.3l8.3-2c0.1,0,0.2,0,0.3,0.1l-8.3,2C190.3,124.4,190.2,124.3,190.1,124.3"/>
						<path id="XMLID_517_" class="st50" d="M190.4,124.4l8.3-2c0.1,0,0.2,0.1,0.3,0.1l-8.3,2C190.6,124.4,190.5,124.4,190.4,124.4"
							/>
						<path id="XMLID_516_" class="st51" d="M190.6,124.5l8.3-2c0.1,0,0.2,0.1,0.3,0.1l-8.3,2C190.8,124.5,190.7,124.5,190.6,124.5"
							/>
						<path id="XMLID_515_" class="st52" d="M190.9,124.6l8.3-2c0.1,0,0.2,0.1,0.2,0.1l-8.3,2C191.1,124.6,191,124.6,190.9,124.6"/>
						<path id="XMLID_514_" class="st53" d="M191.1,124.7l8.3-2c0.1,0,0.2,0.1,0.2,0.1l-8.3,2C191.3,124.7,191.2,124.7,191.1,124.7"
							/>
						<path id="XMLID_513_" class="st54" d="M191.4,124.8l8.3-2c0.1,0,0.2,0.1,0.2,0.1l-8.3,2C191.5,124.9,191.5,124.8,191.4,124.8"
							/>
						<path id="XMLID_512_" class="st55" d="M191.6,124.9l8.3-2c0.1,0,0.2,0.1,0.2,0.1l-8.3,2C191.8,125,191.7,125,191.6,124.9"/>
						<path id="XMLID_511_" class="st56" d="M191.9,125.1l8.3-2c0.1,0.1,0.2,0.1,0.2,0.2l-8.3,2C192,125.2,191.9,125.1,191.9,125.1"
							/>
						<path id="XMLID_510_" class="st57" d="M192.1,125.2l8.3-2c0.1,0.1,0.2,0.1,0.2,0.2l-8.3,2
							C192.3,125.4,192.2,125.3,192.1,125.2"/>
						<path id="XMLID_509_" class="st58" d="M192.3,125.4l8.3-2c0.1,0.1,0.2,0.1,0.2,0.2l-8.3,2
							C192.5,125.5,192.4,125.5,192.3,125.4"/>
						<path id="XMLID_508_" class="st59" d="M192.6,125.6l8.3-2c0.1,0.1,0.2,0.2,0.3,0.2l-8.3,2
							C192.8,125.8,192.7,125.7,192.6,125.6"/>
						<path id="XMLID_507_" class="st60" d="M192.8,125.9l8.3-2c0.1,0.1,0.2,0.2,0.3,0.3l-8.3,2C193,126.1,192.9,126,192.8,125.9"/>
						<path id="XMLID_506_" class="st61" d="M193.1,126.2l8.3-2c0.1,0.1,0.2,0.2,0.3,0.4l-8.3,2
							C193.3,126.4,193.2,126.3,193.1,126.2"/>
						<path id="XMLID_505_" class="st62" d="M193.4,126.5l8.3-2c0.1,0.2,0.3,0.3,0.4,0.5l-8.3,2
							C193.7,126.9,193.6,126.7,193.4,126.5"/>
						<path id="XMLID_504_" class="st63" d="M193.8,127l8.3-2c0.2,0.3,0.4,0.7,0.6,1l-8.3,2C194.2,127.7,194,127.4,193.8,127"/>
						<path id="XMLID_503_" class="st64" d="M194.4,128.1l8.3-2c0.2,0.3,0.3,0.7,0.4,1l-8.3,2C194.7,128.7,194.6,128.4,194.4,128.1"
							/>
						<path id="XMLID_502_" class="st63" d="M194.9,129.1l8.3-2c0.2,0.4,0.3,0.8,0.4,1.3l-8.3,2C195.2,129.9,195,129.5,194.9,129.1"
							/>
						<path id="XMLID_501_" class="st62" d="M195.3,130.4l8.3-2c0.1,0.3,0.1,0.5,0.2,0.8l-8.3,2
							C195.4,130.9,195.4,130.6,195.3,130.4"/>
						<path id="XMLID_500_" class="st61" d="M195.5,131.1l8.3-2c0,0.2,0.1,0.4,0.1,0.7l-8.3,2C195.5,131.6,195.5,131.4,195.5,131.1"
							/>
						<path id="XMLID_499_" class="st60" d="M195.6,131.8l8.3-2c0,0.2,0,0.4,0.1,0.6l-8.3,2C195.6,132.2,195.6,132,195.6,131.8"/>
						<path id="XMLID_498_" class="st59" d="M195.6,132.4l8.3-2c0,0.2,0,0.4,0,0.6l-8.3,2C195.7,132.8,195.7,132.6,195.6,132.4"/>
						<path id="XMLID_497_" class="st58" d="M195.7,133l8.3-2c0,0.1,0,0.3,0,0.4l-8.3,2C195.7,133.2,195.7,133.1,195.7,133"/>
					</g>
				</g>
				<g id="XMLID_293_" class="st3">
					<defs>
						<path id="XMLID_494_" class="st3" d="M248.3,192.7l-8.3,2c2.5-0.6,4.2-3.4,4.2-7l8.3-2C252.5,189.3,250.8,192.1,248.3,192.7z"
							/>
					</defs>
					<clipPath id="XMLID_110_">
						<use xlink:href="#XMLID_494_"  style="overflow:visible;"/>
					</clipPath>
					<g id="XMLID_294_" class="st66">
						<path id="XMLID_493_" class="st58" d="M244.2,187.7l8.3-2c0,0,0,0.1,0,0.1l-8.3,2C244.2,187.7,244.2,187.7,244.2,187.7"/>
						<path id="XMLID_492_" class="st57" d="M244.2,187.8l8.3-2c0,0.1,0,0.3,0,0.4l-8.3,2C244.2,188.1,244.2,187.9,244.2,187.8"/>
						<path id="XMLID_491_" class="st56" d="M244.2,188.2l8.3-2c0,0.1,0,0.3,0,0.4l-8.3,2C244.2,188.5,244.2,188.3,244.2,188.2"/>
						<path id="XMLID_490_" class="st55" d="M244.1,188.6l8.3-2c0,0.1,0,0.3,0,0.4l-8.3,2C244.1,188.9,244.1,188.7,244.1,188.6"/>
						<path id="XMLID_489_" class="st54" d="M244.1,189l8.3-2c0,0.1,0,0.2,0,0.4l-8.3,2C244.1,189.3,244.1,189.1,244.1,189"/>
						<path id="XMLID_488_" class="st53" d="M244.1,189.4l8.3-2c0,0.1,0,0.2-0.1,0.4l-8.3,2C244,189.6,244,189.5,244.1,189.4"/>
						<path id="XMLID_487_" class="st52" d="M244,189.7l8.3-2c0,0.1,0,0.2-0.1,0.3l-8.3,2C244,190,244,189.8,244,189.7"/>
						<path id="XMLID_486_" class="st51" d="M243.9,190.1l8.3-2c0,0.1-0.1,0.2-0.1,0.3l-8.3,2C243.9,190.3,243.9,190.2,243.9,190.1"
							/>
						<path id="XMLID_485_" class="st50" d="M243.8,190.4l8.3-2c0,0.1-0.1,0.2-0.1,0.3l-8.3,2C243.8,190.6,243.8,190.5,243.8,190.4"
							/>
						<path id="XMLID_484_" class="st49" d="M243.8,190.8l8.3-2c0,0.1-0.1,0.2-0.1,0.3l-8.3,2C243.7,191,243.7,190.9,243.8,190.8"/>
						<path id="XMLID_301_" class="st48" d="M243.6,191.1l8.3-2c0,0.1-0.1,0.2-0.1,0.3l-8.3,2C243.6,191.3,243.6,191.2,243.6,191.1"
							/>
						<path id="XMLID_300_" class="st44" d="M243.5,191.4l8.3-2c0,0.1-0.1,0.2-0.1,0.3l-8.3,2C243.4,191.6,243.5,191.5,243.5,191.4"
							/>
						<path id="XMLID_299_" class="st43" d="M243.4,191.8l8.3-2c-0.1,0.1-0.1,0.2-0.2,0.3l-8.3,2C243.2,192,243.3,191.9,243.4,191.8
							"/>
						<path id="XMLID_298_" class="st42" d="M243.2,192.1l8.3-2c-0.1,0.1-0.1,0.2-0.2,0.4l-8.3,2C243,192.3,243.1,192.2,243.2,192.1
							"/>
						<path id="XMLID_297_" class="st41" d="M243,192.5l8.3-2c-0.1,0.1-0.2,0.3-0.3,0.4l-8.3,2C242.8,192.7,242.9,192.6,243,192.5"
							/>
						<path id="XMLID_296_" class="st40" d="M242.7,192.9l8.3-2c-0.1,0.2-0.2,0.3-0.4,0.4l-8.3,2C242.4,193.2,242.6,193,242.7,192.9
							"/>
						<path id="XMLID_295_" class="st67" d="M242.3,193.3l8.3-2c-0.6,0.7-1.4,1.2-2.3,1.4l-8.3,2C240.9,194.5,241.7,194,242.3,193.3
							"/>
					</g>
				</g>
				<g id="XMLID_291_">
					<polygon id="XMLID_292_" class="st45" points="196,154.5 204.3,152.5 245.9,158.4 237.6,160.4 					"/>
				</g>
				<g id="XMLID_289_">
					<polygon id="XMLID_290_" class="st46" points="243.9,169.7 252.2,167.7 252.5,185.6 244.2,187.7 					"/>
				</g>
				<g id="XMLID_287_">
					<path id="XMLID_288_" class="st68" d="M122,93.2c3.5,0.5,6.3,4.5,6.4,9l0.2,13.5l61.1,8.6c3.5,0.5,5.9,4.6,6,9.1l0.3,21.2
						l41.6,5.8c3.5,0.5,6.2,4.8,6.2,9.3l0.3,18c0.1,4.5-2.5,7.6-6,7.1l-50.9-7.1c-3.5-0.5-6.2-4.4-6.3-8.8l-0.1-8.7l-66.5-9.3
						c-3.5-0.5-6-4.7-6-9.2l-0.4-26l-36.3-5.1c-3.5-0.5-6-4.7-6.1-9.1l-0.3-18c-0.1-4.5,2.4-7.7,5.9-7.2L122,93.2z"/>
				</g>
				<g id="XMLID_260_" class="st3">
					<defs>
						<path id="XMLID_286_" class="st3" d="M237.6,160.4l8.3-2c3.5,0.5,6.2,4.8,6.2,9.3l-8.3,2C243.8,165.2,241.1,160.9,237.6,160.4
							z"/>
					</defs>
					<clipPath id="XMLID_111_">
						<use xlink:href="#XMLID_286_"  style="overflow:visible;"/>
					</clipPath>
					<g id="XMLID_261_" class="st69">
						<path id="XMLID_285_" class="st44" d="M237.6,160.4l8.3-2c0,0,0,0,0.1,0L237.6,160.4C237.7,160.4,237.7,160.4,237.6,160.4"/>
						<path id="XMLID_284_" class="st48" d="M237.7,160.4l8.3-2c0.1,0,0.2,0,0.3,0.1l-8.3,2C237.9,160.4,237.8,160.4,237.7,160.4"/>
						<path id="XMLID_283_" class="st49" d="M238,160.4l8.3-2c0.1,0,0.2,0,0.3,0.1l-8.3,2C238.2,160.5,238.1,160.5,238,160.4"/>
						<path id="XMLID_282_" class="st50" d="M238.3,160.5l8.3-2c0.1,0,0.2,0.1,0.3,0.1l-8.3,2C238.4,160.6,238.4,160.5,238.3,160.5"
							/>
						<path id="XMLID_281_" class="st51" d="M238.5,160.6l8.3-2c0.1,0,0.2,0.1,0.3,0.1l-8.3,2C238.7,160.7,238.6,160.6,238.5,160.6"
							/>
						<path id="XMLID_280_" class="st52" d="M238.8,160.7l8.3-2c0.1,0,0.2,0.1,0.3,0.1l-8.3,2C239,160.8,238.9,160.7,238.8,160.7"/>
						<path id="XMLID_279_" class="st53" d="M239,160.8l8.3-2c0.1,0,0.2,0.1,0.3,0.1l-8.3,2C239.2,160.9,239.1,160.8,239,160.8"/>
						<path id="XMLID_278_" class="st54" d="M239.3,160.9l8.3-2c0.1,0,0.2,0.1,0.2,0.1l-8.3,2C239.5,161,239.4,161,239.3,160.9"/>
						<path id="XMLID_277_" class="st55" d="M239.5,161.1l8.3-2c0.1,0,0.2,0.1,0.3,0.2l-8.3,2C239.7,161.2,239.6,161.1,239.5,161.1"
							/>
						<path id="XMLID_276_" class="st56" d="M239.8,161.2l8.3-2c0.1,0.1,0.2,0.1,0.3,0.2l-8.3,2C240,161.3,239.9,161.3,239.8,161.2"
							/>
						<path id="XMLID_275_" class="st57" d="M240.1,161.4l8.3-2c0.1,0.1,0.2,0.1,0.3,0.2l-8.3,2
							C240.2,161.5,240.1,161.5,240.1,161.4"/>
						<path id="XMLID_274_" class="st58" d="M240.3,161.6l8.3-2c0.1,0.1,0.2,0.1,0.3,0.2l-8.3,2
							C240.5,161.7,240.4,161.7,240.3,161.6"/>
						<path id="XMLID_273_" class="st59" d="M240.6,161.8l8.3-2c0.1,0.1,0.2,0.2,0.3,0.3l-8.3,2C240.8,162,240.7,161.9,240.6,161.8"
							/>
						<path id="XMLID_272_" class="st60" d="M240.9,162.1l8.3-2c0.1,0.1,0.2,0.2,0.3,0.3l-8.3,2C241.1,162.3,241,162.2,240.9,162.1"
							/>
						<path id="XMLID_271_" class="st61" d="M241.2,162.4l8.3-2c0.1,0.1,0.2,0.3,0.3,0.4l-8.3,2
							C241.4,162.7,241.3,162.5,241.2,162.4"/>
						<path id="XMLID_270_" class="st62" d="M241.5,162.8l8.3-2c0.1,0.2,0.3,0.4,0.4,0.6l-8.3,2C241.8,163.2,241.7,163,241.5,162.8"
							/>
						<path id="XMLID_269_" class="st63" d="M241.9,163.4l8.3-2c0.2,0.3,0.5,0.7,0.7,1.1l-8.3,2
							C242.4,164.1,242.2,163.7,241.9,163.4"/>
						<path id="XMLID_268_" class="st64" d="M242.6,164.5l8.3-2c0.2,0.3,0.3,0.7,0.5,1.1l-8.3,2
							C242.9,165.2,242.8,164.8,242.6,164.5"/>
						<path id="XMLID_267_" class="st63" d="M243.1,165.5l8.3-2c0.2,0.4,0.3,0.9,0.4,1.3l-8.3,2C243.4,166.4,243.2,166,243.1,165.5"
							/>
						<path id="XMLID_266_" class="st62" d="M243.5,166.9l8.3-2c0.1,0.3,0.1,0.5,0.2,0.8l-8.3,2
							C243.6,167.4,243.6,167.1,243.5,166.9"/>
						<path id="XMLID_265_" class="st61" d="M243.7,167.6l8.3-2c0,0.2,0.1,0.4,0.1,0.6l-8.3,2C243.8,168,243.7,167.8,243.7,167.6"/>
						<path id="XMLID_264_" class="st60" d="M243.8,168.3l8.3-2c0,0.2,0,0.4,0.1,0.5l-8.3,2C243.8,168.6,243.8,168.4,243.8,168.3"/>
						<path id="XMLID_263_" class="st59" d="M243.8,168.8l8.3-2c0,0.2,0,0.3,0,0.5l-8.3,2C243.9,169.1,243.9,169,243.8,168.8"/>
						<path id="XMLID_262_" class="st58" d="M243.9,169.3l8.3-2c0,0.1,0,0.2,0,0.4l-8.3,2C243.9,169.5,243.9,169.4,243.9,169.3"/>
					</g>
				</g>
			</g>
		</g>
	</g>
</g>
<g id="S1" class="st0">
	<path id="XMLID_47_" class="st70" d="M623.9-228.7H392.1c-6.6,0-12-5.4-12-12v-12.4c0-6.6,5.4-12,12-12h231.8c6.6,0,12,5.4,12,12
		v12.4C635.9-234.1,630.5-228.7,623.9-228.7z"/>
	<rect id="XMLID_46_" x="539.8" y="-256" class="st71" width="79.2" height="18.2"/>
	<circle id="XMLID_45_" class="st72" cx="405.4" cy="-246.9" r="10.4"/>
	<circle id="XMLID_44_" class="st73" cx="429.4" cy="-246.9" r="10.4"/>
	<circle id="XMLID_43_" class="st74" cx="453.4" cy="-246.9" r="10.4"/>
</g>
<g id="S2" class="st0">
	<path id="XMLID_10_" class="st70" d="M623.9-187.7H392.1c-6.6,0-12-5.4-12-12v-12.4c0-6.6,5.4-12,12-12h231.8c6.6,0,12,5.4,12,12
		v12.4C635.9-193.1,630.5-187.7,623.9-187.7z"/>
	<rect id="XMLID_9_" x="539.8" y="-215" class="st71" width="79.2" height="18.2"/>
	<circle id="XMLID_8_" class="st73" cx="405.4" cy="-205.9" r="10.4"/>
	<circle id="XMLID_7_" class="st72" cx="429.4" cy="-205.9" r="10.4"/>
	<circle id="XMLID_4_" class="st74" cx="453.4" cy="-205.9" r="10.4"/>
</g>
<g id="S3" class="st0">
	<path id="XMLID_37_" class="st70" d="M623.9-146.7H392.1c-6.6,0-12-5.4-12-12v-12.4c0-6.6,5.4-12,12-12h231.8c6.6,0,12,5.4,12,12
		v12.4C635.9-152.1,630.5-146.7,623.9-146.7z"/>
	<rect id="XMLID_36_" x="539.8" y="-174" class="st71" width="79.2" height="18.2"/>
	<circle id="XMLID_20_" class="st74" cx="405.4" cy="-164.9" r="10.4"/>
	<circle id="XMLID_18_" class="st73" cx="429.4" cy="-164.9" r="10.4"/>
	<circle id="XMLID_17_" class="st72" cx="453.4" cy="-164.9" r="10.4"/>
</g>
</svg>
